<svg width="160" height="64" viewBox="0 0 160 64" fill="none" xmlns="http://www.w3.org/2000/svg">
<rect width="159.034" height="64" rx="8" fill="#141414"/>
<path d="M107.302 29.7611V32.6844H105.47V34.6015H107.302V41.1154C107.302 43.3397 108.309 44.2294 110.84 44.2294C111.285 44.2294 111.709 44.1764 112.079 44.1128V42.2169C111.762 42.2487 111.56 42.2699 111.211 42.2699C110.077 42.2699 109.58 41.7403 109.58 40.5328V34.6015H112.079V32.6844H109.58V29.7611H107.302Z" fill="white"/>
<path d="M118.528 44.3882C121.896 44.3882 123.961 42.1322 123.961 38.3933C123.961 34.6756 121.886 32.409 118.528 32.409C115.16 32.409 113.084 34.6756 113.084 38.3933C113.084 42.1322 115.149 44.3882 118.528 44.3882ZM118.528 42.3652C116.547 42.3652 115.435 40.9142 115.435 38.3933C115.435 35.8937 116.547 34.432 118.528 34.432C120.498 34.432 121.621 35.8937 121.621 38.3933C121.621 40.9036 120.498 42.3652 118.528 42.3652Z" fill="white"/>
<path d="M125.729 44.1658H128.006V37.3553C128.006 35.7348 129.224 34.6439 130.95 34.6439C131.353 34.6439 132.031 34.718 132.221 34.7815V32.5361C131.978 32.4726 131.543 32.4408 131.205 32.4408C129.701 32.4408 128.419 33.2669 128.091 34.4002H127.921V32.6314H125.729V44.1658Z" fill="white"/>
<path d="M137.876 34.3473C139.56 34.3473 140.661 35.523 140.714 37.3342H134.889C135.016 35.5336 136.192 34.3473 137.876 34.3473ZM140.704 41.0518C140.28 41.9521 139.337 42.4499 137.96 42.4499C136.139 42.4499 134.963 41.1684 134.889 39.1453V39.0182H143.034V38.2239C143.034 34.6015 141.095 32.409 137.886 32.409C134.635 32.409 132.569 34.7498 132.569 38.4357C132.569 42.1216 134.592 44.3882 137.897 44.3882C140.534 44.3882 142.377 43.1172 142.896 41.0518H140.704Z" fill="white"/>
<path d="M92.3688 39.9063C92.5444 42.7387 94.9047 44.55 98.4176 44.55C102.172 44.55 104.521 42.6508 104.521 39.6209C104.521 37.2387 103.182 35.9213 99.9326 35.1638L98.1871 34.7357C96.1232 34.2527 95.2889 33.605 95.2889 32.4742C95.2889 31.0471 96.5843 30.114 98.5274 30.114C100.372 30.114 101.645 31.0251 101.876 32.4852H104.269C104.126 29.8176 101.777 27.9403 98.5604 27.9403C95.1023 27.9403 92.7969 29.8176 92.7969 32.6389C92.7969 34.9662 94.1033 36.3495 96.9685 37.0191L99.0105 37.5131C101.107 38.0071 102.029 38.7317 102.029 39.9393C102.029 41.3445 100.58 42.3654 98.6043 42.3654C96.4855 42.3654 95.0145 41.4103 94.8059 39.9063H92.3688Z" fill="white"/>
<path d="M68.7791 32.4408C67.2115 32.4408 65.8558 33.2246 65.1567 34.5379H64.9873V32.6314H62.7948V48H65.072V42.4182H65.2521C65.8558 43.6362 67.1586 44.3565 68.8003 44.3565C71.713 44.3565 73.5666 42.0581 73.5666 38.3933C73.5666 34.7286 71.713 32.4408 68.7791 32.4408ZM68.133 42.3123C66.2265 42.3123 65.0296 40.8082 65.0296 38.4039C65.0296 35.989 66.2265 34.485 68.1436 34.485C70.0713 34.485 71.2258 35.9572 71.2258 38.3933C71.2258 40.84 70.0713 42.3123 68.133 42.3123Z" fill="white"/>
<path d="M81.5349 32.4408C79.9674 32.4408 78.6116 33.2246 77.9126 34.5379H77.7431V32.6314H75.5506V48H77.8278V42.4182H78.0079C78.6116 43.6362 79.9144 44.3565 81.5561 44.3565C84.4688 44.3565 86.3224 42.0581 86.3224 38.3933C86.3224 34.7286 84.4688 32.4408 81.5349 32.4408ZM80.8888 42.3123C78.9823 42.3123 77.7855 40.8082 77.7855 38.4039C77.7855 35.989 78.9823 34.485 80.8994 34.485C82.8271 34.485 83.9816 35.9572 83.9816 38.3933C83.9816 40.84 82.8271 42.3123 80.8888 42.3123Z" fill="white"/>
<path d="M58.7091 44.1658H61.3218L55.6023 28.3246H52.9566L47.2371 44.1658H49.762L51.2221 39.9612H57.26L58.7091 44.1658ZM54.1532 31.2008H54.3398L56.6342 37.8974H51.8478L54.1532 31.2008Z" fill="white"/>
<path d="M48.7667 16.376V24.0179H51.5259C53.8031 24.0179 55.1218 22.6145 55.1218 20.1731C55.1218 17.7688 53.7925 16.376 51.5259 16.376H48.7667ZM49.953 17.4564H51.3935C52.9769 17.4564 53.9143 18.4626 53.9143 20.189C53.9143 21.942 52.9928 22.9376 51.3935 22.9376H49.953V17.4564Z" fill="white"/>
<path d="M59.1604 24.1291C60.8445 24.1291 61.8771 23.0011 61.8771 21.1317C61.8771 19.2728 60.8392 18.1395 59.1604 18.1395C57.4763 18.1395 56.4383 19.2728 56.4383 21.1317C56.4383 23.0011 57.471 24.1291 59.1604 24.1291ZM59.1604 23.1176C58.17 23.1176 57.614 22.3921 57.614 21.1317C57.614 19.8819 58.17 19.151 59.1604 19.151C60.1454 19.151 60.7068 19.8819 60.7068 21.1317C60.7068 22.3868 60.1454 23.1176 59.1604 23.1176Z" fill="white"/>
<path d="M70.6714 18.2507H69.5328L68.5054 22.6516H68.4154L67.2291 18.2507H66.1382L64.9519 22.6516H64.8672L63.8345 18.2507H62.68L64.2688 24.0179H65.4391L66.6254 19.7706H66.7154L67.907 24.0179H69.088L70.6714 18.2507Z" fill="white"/>
<path d="M71.9827 24.0179H73.1213V20.6445C73.1213 19.7442 73.6562 19.1828 74.4982 19.1828C75.3403 19.1828 75.7428 19.6435 75.7428 20.5703V24.0179H76.8814V20.2843C76.8814 18.9127 76.1717 18.1395 74.8848 18.1395C74.0163 18.1395 73.4444 18.5261 73.1637 19.1669H73.0789V18.2507H71.9827V24.0179Z" fill="white"/>
<path d="M78.6745 24.0179H79.8132V16H78.6745V24.0179Z" fill="white"/>
<path d="M84.0954 24.1291C85.7795 24.1291 86.8122 23.0011 86.8122 21.1317C86.8122 19.2728 85.7742 18.1395 84.0954 18.1395C82.4113 18.1395 81.3733 19.2728 81.3733 21.1317C81.3733 23.0011 82.406 24.1291 84.0954 24.1291ZM84.0954 23.1176C83.1051 23.1176 82.549 22.3921 82.549 21.1317C82.549 19.8819 83.1051 19.151 84.0954 19.151C85.0804 19.151 85.6418 19.8819 85.6418 21.1317C85.6418 22.3868 85.0804 23.1176 84.0954 23.1176Z" fill="white"/>
<path d="M90.2047 23.1547C89.5851 23.1547 89.1349 22.8528 89.1349 22.3338C89.1349 21.8254 89.495 21.5554 90.2894 21.5024L91.6981 21.4124V21.8943C91.6981 22.6092 91.0626 23.1547 90.2047 23.1547ZM89.9134 24.1133C90.6707 24.1133 91.3009 23.7849 91.6452 23.2077H91.7352V24.0179H92.8314V20.0778C92.8314 18.8598 92.0159 18.1395 90.5701 18.1395C89.262 18.1395 88.33 18.775 88.2134 19.7654H89.315C89.4421 19.3576 89.8816 19.1246 90.5171 19.1246C91.2956 19.1246 91.6981 19.4688 91.6981 20.0778V20.5756L90.1358 20.6656C88.7642 20.7504 87.991 21.3488 87.991 22.3868C87.991 23.4407 88.8013 24.1133 89.9134 24.1133Z" fill="white"/>
<path d="M96.6953 24.1133C97.4897 24.1133 98.1622 23.7372 98.5065 23.107H98.5965V24.0179H99.6874V16H98.5488V19.1669H98.4641C98.1516 18.5314 97.4844 18.1554 96.6953 18.1554C95.2389 18.1554 94.3016 19.3099 94.3016 21.1317C94.3016 22.9588 95.2283 24.1133 96.6953 24.1133ZM97.0183 19.1775C97.9716 19.1775 98.57 19.9348 98.57 21.137C98.57 22.3444 97.9769 23.0912 97.0183 23.0912C96.0545 23.0912 95.4772 22.355 95.4772 21.1317C95.4772 19.9189 96.0598 19.1775 97.0183 19.1775Z" fill="white"/>
<path d="M107.071 24.1291C108.755 24.1291 109.788 23.0011 109.788 21.1317C109.788 19.2728 108.75 18.1395 107.071 18.1395C105.387 18.1395 104.349 19.2728 104.349 21.1317C104.349 23.0011 105.382 24.1291 107.071 24.1291ZM107.071 23.1176C106.081 23.1176 105.525 22.3921 105.525 21.1317C105.525 19.8819 106.081 19.151 107.071 19.151C108.056 19.151 108.617 19.8819 108.617 21.1317C108.617 22.3868 108.056 23.1176 107.071 23.1176Z" fill="white"/>
<path d="M111.295 24.0179H112.434V20.6445C112.434 19.7442 112.968 19.1828 113.81 19.1828C114.652 19.1828 115.055 19.6435 115.055 20.5703V24.0179H116.194V20.2843C116.194 18.9127 115.484 18.1395 114.197 18.1395C113.329 18.1395 112.757 18.5261 112.476 19.1669H112.391V18.2507H111.295V24.0179Z" fill="white"/>
<path d="M121.438 16.8156V18.2772H120.521V19.2358H121.438V22.4927C121.438 23.6048 121.941 24.0497 123.206 24.0497C123.429 24.0497 123.641 24.0232 123.826 23.9914V23.0435C123.667 23.0594 123.566 23.07 123.392 23.07C122.825 23.07 122.576 22.8052 122.576 22.2014V19.2358H123.826V18.2772H122.576V16.8156H121.438Z" fill="white"/>
<path d="M125.354 24.0179H126.493V20.6498C126.493 19.7759 127.012 19.1881 127.944 19.1881C128.749 19.1881 129.178 19.6541 129.178 20.5756V24.0179H130.317V20.2949C130.317 18.9233 129.559 18.1448 128.331 18.1448C127.462 18.1448 126.853 18.5314 126.572 19.1775H126.482V16H125.354V24.0179Z" fill="white"/>
<path d="M134.424 19.1087C135.266 19.1087 135.817 19.6965 135.843 20.6021H132.931C132.994 19.7018 133.582 19.1087 134.424 19.1087ZM135.838 22.4609C135.626 22.9111 135.155 23.16 134.466 23.16C133.556 23.16 132.968 22.5192 132.931 21.5077V21.4441H137.003V21.047C137.003 19.2358 136.034 18.1395 134.429 18.1395C132.803 18.1395 131.771 19.3099 131.771 21.1529C131.771 22.9958 132.782 24.1291 134.435 24.1291C135.753 24.1291 136.675 23.4936 136.934 22.4609H135.838Z" fill="white"/>
<path d="M34.8812 31.1645C34.9089 29.0196 36.0608 26.99 37.8882 25.8666C36.7353 24.2201 34.8044 23.1762 32.7955 23.1134C30.6528 22.8885 28.5755 24.3955 27.4837 24.3955C26.3707 24.3955 24.6895 23.1357 22.8793 23.173C20.5196 23.2492 18.3199 24.5907 17.1719 26.6537C14.7041 30.9262 16.5448 37.2055 18.9087 40.6591C20.0915 42.3502 21.4737 44.2392 23.2824 44.1722C25.0522 44.0988 25.7132 43.0437 27.8496 43.0437C29.9662 43.0437 30.5864 44.1722 32.4317 44.1296C34.3309 44.0988 35.5274 42.431 36.6687 40.7239C37.5184 39.5189 38.1723 38.1871 38.6061 36.7778C36.3743 35.8339 34.8838 33.5878 34.8812 31.1645Z" fill="white"/>
<path d="M31.3956 20.8421C32.4311 19.599 32.9413 18.0013 32.8178 16.3881C31.2357 16.5543 29.7744 17.3104 28.7249 18.5058C27.6987 19.6737 27.1646 21.2434 27.2656 22.7949C28.8481 22.8112 30.404 22.0756 31.3956 20.8421Z" fill="white"/>
</svg>
