<svg width="347" height="76" viewBox="0 0 347 76" fill="none" xmlns="http://www.w3.org/2000/svg">
<g filter="url(#filter0_d_641_118351)">
<rect x="2" y="1" width="343" height="72" rx="8" fill="black"/>
<path d="M131.545 37.7631C131.569 35.9104 132.564 34.1574 134.143 33.187C133.147 31.7649 131.479 30.8632 129.744 30.8089C127.893 30.6147 126.099 31.9164 125.156 31.9164C124.194 31.9164 122.742 30.8282 121.179 30.8604C119.141 30.9262 117.241 32.085 116.249 33.8669C114.117 37.5573 115.707 42.9809 117.749 45.964C118.771 47.4247 119.965 49.0564 121.527 48.9985C123.056 48.9351 123.627 48.0237 125.472 48.0237C127.3 48.0237 127.836 48.9985 129.43 48.9617C131.07 48.9351 132.104 47.4945 133.089 46.02C133.823 44.9791 134.388 43.8288 134.763 42.6116C132.835 41.7962 131.548 39.8562 131.545 37.7631Z" fill="white"/>
<path d="M128.535 28.8471C129.429 27.7734 129.87 26.3934 129.763 25C128.397 25.1435 127.134 25.7966 126.228 26.8291C125.342 27.8379 124.88 29.1937 124.967 30.5338C126.334 30.5479 127.678 29.9125 128.535 28.8471Z" fill="white"/>
<path d="M147.003 28L149.979 19.36H151.149L154.125 28H153.207L150.381 19.852H150.729L147.921 28H147.003ZM148.329 25.906V25.078H152.793V25.906H148.329ZM156.48 28L154.128 21.52H155.022L156.936 26.848L158.838 21.52H159.744L157.392 28H156.48ZM162.313 28.18C161.825 28.18 161.415 28.092 161.083 27.916C160.755 27.74 160.509 27.506 160.345 27.214C160.181 26.922 160.099 26.604 160.099 26.26C160.099 25.908 160.169 25.608 160.309 25.36C160.453 25.108 160.647 24.902 160.891 24.742C161.139 24.582 161.425 24.46 161.749 24.376C162.077 24.296 162.439 24.226 162.835 24.166C163.235 24.102 163.625 24.048 164.005 24.004C164.389 23.956 164.725 23.91 165.013 23.866L164.701 24.058C164.713 23.418 164.589 22.944 164.329 22.636C164.069 22.328 163.617 22.174 162.973 22.174C162.529 22.174 162.153 22.274 161.845 22.474C161.541 22.674 161.327 22.99 161.203 23.422L160.345 23.17C160.493 22.59 160.791 22.14 161.239 21.82C161.687 21.5 162.269 21.34 162.985 21.34C163.577 21.34 164.079 21.452 164.491 21.676C164.907 21.896 165.201 22.216 165.373 22.636C165.453 22.824 165.505 23.034 165.529 23.266C165.553 23.498 165.565 23.734 165.565 23.974V28H164.779V26.374L165.007 26.47C164.787 27.026 164.445 27.45 163.981 27.742C163.517 28.034 162.961 28.18 162.313 28.18ZM162.415 27.418C162.827 27.418 163.187 27.344 163.495 27.196C163.803 27.048 164.051 26.846 164.239 26.59C164.427 26.33 164.549 26.038 164.605 25.714C164.653 25.506 164.679 25.278 164.683 25.03C164.687 24.778 164.689 24.59 164.689 24.466L165.025 24.64C164.725 24.68 164.399 24.72 164.047 24.76C163.699 24.8 163.355 24.846 163.015 24.898C162.679 24.95 162.375 25.012 162.103 25.084C161.919 25.136 161.741 25.21 161.569 25.306C161.397 25.398 161.255 25.522 161.143 25.678C161.035 25.834 160.981 26.028 160.981 26.26C160.981 26.448 161.027 26.63 161.119 26.806C161.215 26.982 161.367 27.128 161.575 27.244C161.787 27.36 162.067 27.418 162.415 27.418ZM167.247 20.29V19.3H168.129V20.29H167.247ZM167.247 28V21.52H168.129V28H167.247ZM170.047 28V19.18H170.929V28H170.047ZM174.582 28.18C174.094 28.18 173.684 28.092 173.352 27.916C173.024 27.74 172.778 27.506 172.614 27.214C172.45 26.922 172.368 26.604 172.368 26.26C172.368 25.908 172.438 25.608 172.578 25.36C172.722 25.108 172.916 24.902 173.16 24.742C173.408 24.582 173.694 24.46 174.018 24.376C174.346 24.296 174.708 24.226 175.104 24.166C175.504 24.102 175.894 24.048 176.274 24.004C176.658 23.956 176.994 23.91 177.282 23.866L176.97 24.058C176.982 23.418 176.858 22.944 176.598 22.636C176.338 22.328 175.886 22.174 175.242 22.174C174.798 22.174 174.422 22.274 174.114 22.474C173.81 22.674 173.596 22.99 173.472 23.422L172.614 23.17C172.762 22.59 173.06 22.14 173.508 21.82C173.956 21.5 174.538 21.34 175.254 21.34C175.846 21.34 176.348 21.452 176.76 21.676C177.176 21.896 177.47 22.216 177.642 22.636C177.722 22.824 177.774 23.034 177.798 23.266C177.822 23.498 177.834 23.734 177.834 23.974V28H177.048V26.374L177.276 26.47C177.056 27.026 176.714 27.45 176.25 27.742C175.786 28.034 175.23 28.18 174.582 28.18ZM174.684 27.418C175.096 27.418 175.456 27.344 175.764 27.196C176.072 27.048 176.32 26.846 176.508 26.59C176.696 26.33 176.818 26.038 176.874 25.714C176.922 25.506 176.948 25.278 176.952 25.03C176.956 24.778 176.958 24.59 176.958 24.466L177.294 24.64C176.994 24.68 176.668 24.72 176.316 24.76C175.968 24.8 175.624 24.846 175.284 24.898C174.948 24.95 174.644 25.012 174.372 25.084C174.188 25.136 174.01 25.21 173.838 25.306C173.666 25.398 173.524 25.522 173.412 25.678C173.304 25.834 173.25 26.028 173.25 26.26C173.25 26.448 173.296 26.63 173.388 26.806C173.484 26.982 173.636 27.128 173.844 27.244C174.056 27.36 174.336 27.418 174.684 27.418ZM182.306 28.18C181.71 28.18 181.206 28.03 180.794 27.73C180.382 27.426 180.07 27.016 179.858 26.5C179.646 25.98 179.54 25.398 179.54 24.754C179.54 24.098 179.646 23.514 179.858 23.002C180.074 22.486 180.39 22.08 180.806 21.784C181.222 21.488 181.734 21.34 182.342 21.34C182.934 21.34 183.442 21.49 183.866 21.79C184.29 22.09 184.614 22.498 184.838 23.014C185.066 23.53 185.18 24.11 185.18 24.754C185.18 25.402 185.066 25.984 184.838 26.5C184.61 27.016 184.282 27.426 183.854 27.73C183.426 28.03 182.91 28.18 182.306 28.18ZM179.39 28V19.36H180.278V23.122H180.182V28H179.39ZM182.216 27.358C182.668 27.358 183.044 27.244 183.344 27.016C183.644 26.788 183.868 26.478 184.016 26.086C184.168 25.69 184.244 25.246 184.244 24.754C184.244 24.266 184.17 23.826 184.022 23.434C183.874 23.042 183.648 22.732 183.344 22.504C183.044 22.276 182.662 22.162 182.198 22.162C181.746 22.162 181.37 22.272 181.07 22.492C180.774 22.712 180.552 23.018 180.404 23.41C180.256 23.798 180.182 24.246 180.182 24.754C180.182 25.254 180.256 25.702 180.404 26.098C180.552 26.49 180.776 26.798 181.076 27.022C181.376 27.246 181.756 27.358 182.216 27.358ZM186.618 28V19.18H187.5V28H186.618ZM192.04 28.18C191.408 28.18 190.86 28.04 190.396 27.76C189.936 27.48 189.578 27.086 189.322 26.578C189.066 26.07 188.938 25.474 188.938 24.79C188.938 24.082 189.064 23.47 189.316 22.954C189.568 22.438 189.922 22.04 190.378 21.76C190.838 21.48 191.38 21.34 192.004 21.34C192.644 21.34 193.19 21.488 193.642 21.784C194.094 22.076 194.436 22.496 194.668 23.044C194.9 23.592 195.006 24.246 194.986 25.006H194.086V24.694C194.07 23.854 193.888 23.22 193.54 22.792C193.196 22.364 192.692 22.15 192.028 22.15C191.332 22.15 190.798 22.376 190.426 22.828C190.058 23.28 189.874 23.924 189.874 24.76C189.874 25.576 190.058 26.21 190.426 26.662C190.798 27.11 191.324 27.334 192.004 27.334C192.468 27.334 192.872 27.228 193.216 27.016C193.564 26.8 193.838 26.49 194.038 26.086L194.86 26.404C194.604 26.968 194.226 27.406 193.726 27.718C193.23 28.026 192.668 28.18 192.04 28.18ZM189.562 25.006V24.268H194.512V25.006H189.562ZM201.426 28.18C200.782 28.18 200.232 28.034 199.776 27.742C199.32 27.45 198.97 27.046 198.726 26.53C198.482 26.014 198.36 25.422 198.36 24.754C198.36 24.074 198.484 23.478 198.732 22.966C198.98 22.454 199.332 22.056 199.788 21.772C200.248 21.484 200.794 21.34 201.426 21.34C202.074 21.34 202.626 21.486 203.082 21.778C203.542 22.066 203.892 22.468 204.132 22.984C204.376 23.496 204.498 24.086 204.498 24.754C204.498 25.434 204.376 26.032 204.132 26.548C203.888 27.06 203.536 27.46 203.076 27.748C202.616 28.036 202.066 28.18 201.426 28.18ZM201.426 27.334C202.146 27.334 202.682 27.096 203.034 26.62C203.386 26.14 203.562 25.518 203.562 24.754C203.562 23.97 203.384 23.346 203.028 22.882C202.676 22.418 202.142 22.186 201.426 22.186C200.942 22.186 200.542 22.296 200.226 22.516C199.914 22.732 199.68 23.034 199.524 23.422C199.372 23.806 199.296 24.25 199.296 24.754C199.296 25.534 199.476 26.16 199.836 26.632C200.196 27.1 200.726 27.334 201.426 27.334ZM210.502 28V24.694C210.502 24.334 210.468 24.004 210.4 23.704C210.332 23.4 210.222 23.136 210.07 22.912C209.922 22.684 209.728 22.508 209.488 22.384C209.252 22.26 208.964 22.198 208.624 22.198C208.312 22.198 208.036 22.252 207.796 22.36C207.56 22.468 207.36 22.624 207.196 22.828C207.036 23.028 206.914 23.272 206.83 23.56C206.746 23.848 206.704 24.176 206.704 24.544L206.08 24.406C206.08 23.742 206.196 23.184 206.428 22.732C206.66 22.28 206.98 21.938 207.388 21.706C207.796 21.474 208.264 21.358 208.792 21.358C209.18 21.358 209.518 21.418 209.806 21.538C210.098 21.658 210.344 21.82 210.544 22.024C210.748 22.228 210.912 22.462 211.036 22.726C211.16 22.986 211.25 23.264 211.306 23.56C211.362 23.852 211.39 24.144 211.39 24.436V28H210.502ZM205.816 28V21.52H206.614V23.116H206.704V28H205.816Z" fill="white"/>
<path d="M147.123 50L151.335 37.04H154.044L158.256 50H156.303L152.424 38.174H152.91L149.076 50H147.123ZM149.31 47.075V45.311H156.078V47.075H149.31ZM164.434 50.27C163.504 50.27 162.724 50.045 162.094 49.595C161.464 49.139 160.987 48.524 160.663 47.75C160.339 46.976 160.177 46.103 160.177 45.131C160.177 44.159 160.336 43.286 160.654 42.512C160.978 41.738 161.452 41.129 162.076 40.685C162.706 40.235 163.48 40.01 164.398 40.01C165.31 40.01 166.096 40.235 166.756 40.685C167.422 41.129 167.935 41.738 168.295 42.512C168.655 43.28 168.835 44.153 168.835 45.131C168.835 46.103 168.655 46.979 168.295 47.759C167.941 48.533 167.434 49.145 166.774 49.595C166.12 50.045 165.34 50.27 164.434 50.27ZM159.862 54.32V40.28H161.536V47.273H161.752V54.32H159.862ZM164.173 48.569C164.773 48.569 165.268 48.416 165.658 48.11C166.054 47.804 166.348 47.393 166.54 46.877C166.738 46.355 166.837 45.773 166.837 45.131C166.837 44.495 166.738 43.919 166.54 43.403C166.348 42.887 166.051 42.476 165.649 42.17C165.247 41.864 164.734 41.711 164.11 41.711C163.522 41.711 163.036 41.855 162.652 42.143C162.274 42.431 161.992 42.833 161.806 43.349C161.626 43.865 161.536 44.459 161.536 45.131C161.536 45.803 161.626 46.397 161.806 46.913C161.986 47.429 162.271 47.834 162.661 48.128C163.051 48.422 163.555 48.569 164.173 48.569ZM175.385 50.27C174.455 50.27 173.675 50.045 173.045 49.595C172.415 49.139 171.938 48.524 171.614 47.75C171.29 46.976 171.128 46.103 171.128 45.131C171.128 44.159 171.287 43.286 171.605 42.512C171.929 41.738 172.403 41.129 173.027 40.685C173.657 40.235 174.431 40.01 175.349 40.01C176.261 40.01 177.047 40.235 177.707 40.685C178.373 41.129 178.886 41.738 179.246 42.512C179.606 43.28 179.786 44.153 179.786 45.131C179.786 46.103 179.606 46.979 179.246 47.759C178.892 48.533 178.385 49.145 177.725 49.595C177.071 50.045 176.291 50.27 175.385 50.27ZM170.813 54.32V40.28H172.487V47.273H172.703V54.32H170.813ZM175.124 48.569C175.724 48.569 176.219 48.416 176.609 48.11C177.005 47.804 177.299 47.393 177.491 46.877C177.689 46.355 177.788 45.773 177.788 45.131C177.788 44.495 177.689 43.919 177.491 43.403C177.299 42.887 177.002 42.476 176.6 42.17C176.198 41.864 175.685 41.711 175.061 41.711C174.473 41.711 173.987 41.855 173.603 42.143C173.225 42.431 172.943 42.833 172.757 43.349C172.577 43.865 172.487 44.459 172.487 45.131C172.487 45.803 172.577 46.397 172.757 46.913C172.937 47.429 173.222 47.834 173.612 48.128C174.002 48.422 174.506 48.569 175.124 48.569ZM190.075 50.27C189.145 50.27 188.305 50.111 187.555 49.793C186.811 49.469 186.196 49.01 185.71 48.416C185.23 47.816 184.918 47.105 184.774 46.283L186.736 45.986C186.934 46.778 187.348 47.396 187.978 47.84C188.608 48.278 189.343 48.497 190.183 48.497C190.705 48.497 191.185 48.416 191.623 48.254C192.061 48.086 192.412 47.849 192.676 47.543C192.946 47.231 193.081 46.859 193.081 46.427C193.081 46.193 193.039 45.986 192.955 45.806C192.877 45.626 192.766 45.47 192.622 45.338C192.484 45.2 192.313 45.083 192.109 44.987C191.911 44.885 191.692 44.798 191.452 44.726L188.131 43.745C187.807 43.649 187.477 43.526 187.141 43.376C186.805 43.22 186.496 43.019 186.214 42.773C185.938 42.521 185.713 42.212 185.539 41.846C185.365 41.474 185.278 41.024 185.278 40.496C185.278 39.698 185.482 39.023 185.89 38.471C186.304 37.913 186.862 37.493 187.564 37.211C188.266 36.923 189.052 36.779 189.922 36.779C190.798 36.791 191.581 36.947 192.271 37.247C192.967 37.547 193.543 37.979 193.999 38.543C194.461 39.101 194.779 39.779 194.953 40.577L192.937 40.919C192.847 40.433 192.655 40.016 192.361 39.668C192.067 39.314 191.707 39.044 191.281 38.858C190.855 38.666 190.393 38.567 189.895 38.561C189.415 38.549 188.974 38.621 188.572 38.777C188.176 38.933 187.858 39.152 187.618 39.434C187.384 39.716 187.267 40.04 187.267 40.406C187.267 40.766 187.372 41.057 187.582 41.279C187.792 41.501 188.05 41.678 188.356 41.81C188.668 41.936 188.977 42.041 189.283 42.125L191.677 42.8C191.977 42.884 192.316 42.998 192.694 43.142C193.078 43.28 193.447 43.475 193.801 43.727C194.161 43.979 194.458 44.315 194.692 44.735C194.926 45.149 195.043 45.671 195.043 46.301C195.043 46.955 194.911 47.531 194.647 48.029C194.383 48.521 194.02 48.935 193.558 49.271C193.102 49.601 192.574 49.85 191.974 50.018C191.374 50.186 190.741 50.27 190.075 50.27ZM202.523 50C201.911 50.12 201.311 50.171 200.723 50.153C200.135 50.135 199.61 50.021 199.148 49.811C198.686 49.601 198.338 49.271 198.104 48.821C197.894 48.419 197.78 48.011 197.762 47.597C197.75 47.177 197.744 46.703 197.744 46.175V37.58H199.634V46.085C199.634 46.475 199.637 46.814 199.643 47.102C199.655 47.39 199.718 47.633 199.832 47.831C200.048 48.203 200.39 48.416 200.858 48.47C201.332 48.518 201.887 48.497 202.523 48.407V50ZM195.881 41.792V40.28H202.523V41.792H195.881ZM208.354 50.27C207.382 50.27 206.539 50.051 205.825 49.613C205.111 49.175 204.559 48.572 204.169 47.804C203.785 47.03 203.593 46.139 203.593 45.131C203.593 44.117 203.791 43.226 204.187 42.458C204.583 41.684 205.138 41.084 205.852 40.658C206.566 40.226 207.4 40.01 208.354 40.01C209.326 40.01 210.169 40.229 210.883 40.667C211.597 41.105 212.149 41.708 212.539 42.476C212.929 43.244 213.124 44.129 213.124 45.131C213.124 46.145 212.926 47.039 212.53 47.813C212.14 48.581 211.588 49.184 210.874 49.622C210.16 50.054 209.32 50.27 208.354 50.27ZM208.354 48.497C209.284 48.497 209.977 48.185 210.433 47.561C210.895 46.931 211.126 46.121 211.126 45.131C211.126 44.117 210.892 43.307 210.424 42.701C209.962 42.089 209.272 41.783 208.354 41.783C207.724 41.783 207.205 41.927 206.797 42.215C206.389 42.497 206.086 42.89 205.888 43.394C205.69 43.892 205.591 44.471 205.591 45.131C205.591 46.151 205.825 46.967 206.293 47.579C206.761 48.191 207.448 48.497 208.354 48.497ZM215.101 50V40.28H216.775V42.638L216.541 42.332C216.661 42.02 216.817 41.735 217.009 41.477C217.201 41.213 217.423 40.997 217.675 40.829C217.921 40.649 218.194 40.511 218.494 40.415C218.8 40.313 219.112 40.253 219.43 40.235C219.748 40.211 220.054 40.226 220.348 40.28V42.044C220.03 41.96 219.676 41.936 219.286 41.972C218.902 42.008 218.548 42.131 218.224 42.341C217.918 42.539 217.675 42.779 217.495 43.061C217.321 43.343 217.195 43.658 217.117 44.006C217.039 44.348 217 44.711 217 45.095V50H215.101ZM226.197 50.27C225.231 50.27 224.382 50.06 223.65 49.64C222.924 49.214 222.357 48.623 221.949 47.867C221.547 47.105 221.346 46.223 221.346 45.221C221.346 44.159 221.544 43.238 221.94 42.458C222.342 41.678 222.9 41.075 223.614 40.649C224.328 40.223 225.159 40.01 226.107 40.01C227.097 40.01 227.94 40.241 228.636 40.703C229.332 41.159 229.851 41.81 230.193 42.656C230.541 43.502 230.679 44.507 230.607 45.671H228.726V44.987C228.714 43.859 228.498 43.025 228.078 42.485C227.664 41.945 227.031 41.675 226.179 41.675C225.237 41.675 224.529 41.972 224.055 42.566C223.581 43.16 223.344 44.018 223.344 45.14C223.344 46.208 223.581 47.036 224.055 47.624C224.529 48.206 225.213 48.497 226.107 48.497C226.695 48.497 227.202 48.365 227.628 48.101C228.06 47.831 228.396 47.447 228.636 46.949L230.481 47.534C230.103 48.404 229.53 49.079 228.762 49.559C227.994 50.033 227.139 50.27 226.197 50.27ZM222.732 45.671V44.204H229.671V45.671H222.732Z" fill="white"/>
</g>
<defs>
<filter id="filter0_d_641_118351" x="0" y="0" width="347" height="76" filterUnits="userSpaceOnUse" color-interpolation-filters="sRGB">
<feFlood flood-opacity="0" result="BackgroundImageFix"/>
<feColorMatrix in="SourceAlpha" type="matrix" values="0 0 0 0 0 0 0 0 0 0 0 0 0 0 0 0 0 0 127 0" result="hardAlpha"/>
<feOffset dy="1"/>
<feGaussianBlur stdDeviation="1"/>
<feColorMatrix type="matrix" values="0 0 0 0 0.0627451 0 0 0 0 0.0941176 0 0 0 0 0.156863 0 0 0 0.05 0"/>
<feBlend mode="normal" in2="BackgroundImageFix" result="effect1_dropShadow_641_118351"/>
<feBlend mode="normal" in="SourceGraphic" in2="effect1_dropShadow_641_118351" result="shape"/>
</filter>
</defs>
</svg>
