<svg width="96" height="120" viewBox="0 0 96 120" fill="none" xmlns="http://www.w3.org/2000/svg">
<path d="M2.98974 90.999C4.09509 90.999 4.98974 90.1034 4.98974 88.999V75.999H18.9897C21.5995 75.991 21.6093 72.0089 18.9897 71.999H2.98974C1.8844 71.999 0.989746 72.8946 0.989746 73.999V88.999C0.989746 90.1034 1.8844 90.999 2.98974 90.999Z" fill="#5D6B98"/>
<path d="M18.9897 116H4.98974V101C4.98259 98.392 0.99866 98.3795 0.989746 101V118C0.989746 119.104 1.8844 120 2.98974 120H18.9897C21.5995 119.987 21.6103 116.013 18.9897 116Z" fill="#5D6B98"/>
<path d="M46.9897 72.0001H30.9897C28.3762 72.0108 28.3728 75.9894 30.9897 76.0001H44.9897V89.0001C44.9897 90.1045 45.8843 91.0001 46.9897 91.0001C48.095 91.0001 48.9897 90.1045 48.9897 89.0001V74.0001C48.9897 72.8957 48.095 72.0001 46.9897 72.0001Z" fill="#5D6B98"/>
<path d="M46.9898 98.9989C45.8845 98.9989 44.9898 99.8944 44.9898 100.999V115.999H30.9899C28.38 116.007 28.3702 119.989 30.9899 119.999H46.9898C48.0952 119.999 48.9898 119.103 48.9898 117.999V100.999C48.9898 99.8944 48.0952 98.9989 46.9898 98.9989Z" fill="#5D6B98"/>
<path d="M36.9922 90C38.0975 90 38.9922 89.1044 38.9922 88V84C38.9922 82.8955 38.0975 82 36.9922 82H28.9922C27.8868 82 26.9922 82.8955 26.9922 84C26.9922 85.1044 27.8868 86 28.9922 86H34.9922V88C34.9922 89.1044 35.8868 90 36.9922 90Z" fill="#5D6B98"/>
<path d="M20.9922 82H12.9922C11.8868 82 10.9922 82.8955 10.9922 84V98C11.002 100.612 14.9814 100.619 14.9922 98V86H20.9922C23.6072 85.9893 23.6072 82.0107 20.9922 82Z" fill="#5D6B98"/>
<path d="M20.9921 98C19.8868 98 18.9921 98.8955 18.9921 100V106H12.9922C10.3796 106.01 10.3743 109.989 12.9922 110H20.9921C22.0975 110 22.9921 109.104 22.9921 108V100C22.9921 98.8955 22.0975 98 20.9921 98Z" fill="#5D6B98"/>
<path d="M30.9897 108V100C30.979 97.3865 27.0005 97.3831 26.9897 100V108C27.0005 110.613 30.979 110.617 30.9897 108Z" fill="#5D6B98"/>
<path d="M94.9894 27.6802C94.9894 27.2606 95.0894 21.5205 94.8492 21.2999C94.8492 21.0204 85.3297 1.34018 85.3091 1.14018C84.9895 0.440182 84.2895 0 83.5091 0H30.4693C29.6889 0 28.9889 0.440182 28.6693 1.14018L19.1888 21.1401C19.0888 21.3999 19.0085 21.6598 19.0085 21.9196C19.0085 21.9401 18.9888 21.9803 18.9888 22V27.6804C18.929 31.5803 21.4693 35.2205 24.9888 36.8607V67.0801C24.9888 68.1801 25.8888 69.0801 26.9888 69.0801C28.0888 69.0801 28.9888 68.1801 28.9888 67.0801V37.9601C32.7888 38.2798 36.6889 36.6798 39.0084 33.62C43.1485 39.4004 52.7887 39.4004 57.0084 33.62C61.1485 39.4004 70.7887 39.4004 75.0083 33.62C77.2887 36.6799 81.228 38.2603 84.9887 37.9601V44.0004H60.9887C59.8887 44.0004 58.9887 44.9004 58.9887 46.0004V62.0003C58.9887 63.1003 59.8887 64.0003 60.9887 64.0003H84.9887V76.0003H54.9887C53.8887 76.0003 52.9887 76.9003 52.9887 78.0003C52.9887 78.0806 52.9887 78.1601 53.0084 78.2199H52.928L52.9289 90.0002C52.9289 91.1002 53.8289 92.0002 54.9289 92.0002H92.9882C94.0882 92.0002 94.9882 91.1002 94.9882 90.0002V78.0003C94.9882 76.9003 94.0882 76.0003 92.9882 76.0003H88.9883V36.8598C92.6285 35.1196 94.9882 31.5999 94.9882 27.6804L94.9894 27.6802ZM24.1484 19.9998L31.7287 3.99983H82.2475L89.8278 19.9998H24.1484Z" fill="#5D6B98"/>
</svg>
