<svg width="48" height="39" viewBox="0 0 48 39" fill="none" xmlns="http://www.w3.org/2000/svg">
<path d="M30.3093 13.0895H46.0467C47.1231 13.0895 47.9994 12.2131 47.9994 11.1367V5.36545C47.9994 2.66152 45.8086 0.47053 43.1045 0.47053L4.89492 0.469971C2.19099 0.469971 0 2.66082 0 5.36489V34.1097C0 36.4884 1.92829 38.429 4.31931 38.429H23.5622C25.9409 38.429 27.8815 36.5007 27.8815 34.1097V30.2164C27.8815 27.8376 29.8098 25.897 32.2008 25.897H35.0428C37.4215 25.897 39.3621 27.8253 39.3621 30.2164L39.3615 33.9224C39.3615 36.1759 41.0143 38.1914 43.2549 38.4043C45.8336 38.6547 48 36.6264 48 34.1101V18.9608C48 17.8844 47.1236 17.008 46.0472 17.008H30.3098C29.2334 17.008 28.3571 16.1317 28.3571 15.0553C28.3442 13.9654 29.2206 13.0891 30.3098 13.0891L30.3093 13.0895ZM20.3563 16.9331H15.5362V21.7531H11.7804V16.9331H6.96028V13.1772H11.7804V8.35711H15.5362V13.1772H20.3563V16.9331Z" fill="#EF6820"/>
</svg>
