<svg width="48" height="63" viewBox="0 0 48 63" fill="none" xmlns="http://www.w3.org/2000/svg">
<path d="M35.3289 0.430274H12.6715C5.67401 0.430274 0.000700312 6.10359 0.000700312 13.1018L0 35.7556C0 42.7538 5.67331 48.4271 12.6708 48.4271H16.5484L23.9997 62.1714L31.4509 48.4271H35.3278C42.3253 48.4271 47.9986 42.7538 47.9986 35.7556L48 13.1C47.9986 6.10179 42.3261 0.429199 35.3278 0.429199L35.3289 0.430274ZM23.1316 15.7686C23.1316 19.6595 20.8703 22.9482 17.7862 23.9937V38.5547H13.6032V23.9937C10.519 22.9489 8.25779 19.6602 8.25779 15.7686V11.3384H12.4408V15.7686C12.4408 17.0859 12.8974 18.2869 13.6033 19.0999V11.3629H17.7862V19.0999C18.4921 18.2869 18.9488 17.0852 18.9488 15.7686V11.3384H23.1317L23.1316 15.7686ZM34.3989 25.8895V38.554H30.216V25.8895C27.1318 24.8558 24.8713 21.6029 24.8713 17.7546C24.8713 13.0772 28.2075 9.27182 32.3078 9.27182C36.4081 9.27182 39.7444 13.0774 39.7444 17.7546C39.7437 21.6029 37.4831 24.8557 34.3989 25.8895Z" fill="#EF6820"/>
</svg>
