<svg width="48" height="47" viewBox="0 0 48 47" fill="none" xmlns="http://www.w3.org/2000/svg">
<path d="M47.9999 13.7304C47.9999 13.5147 47.9725 13.2996 47.9201 13.0899L45.2516 2.20304C45.1098 1.62333 44.7773 1.10857 44.3079 0.739774C43.8378 0.371571 43.2587 0.171387 42.6617 0.171387H5.29379C4.69681 0.171387 4.11771 0.371571 3.64823 0.739774C3.17876 1.10798 2.8463 1.62333 2.70391 2.20304L0.0353854 13.0899C-0.113561 14.6289 0.209946 16.176 0.963618 17.5262C1.71729 18.8756 2.86481 19.9635 4.25291 20.6439C4.60859 20.8429 4.98454 21.0037 5.37359 21.1241C5.33427 21.2545 5.30746 21.3886 5.29376 21.5244V29.5318C5.29852 33.2346 6.40133 36.8529 8.4621 39.929C10.5236 43.005 13.45 45.4013 16.8729 46.8146C17.122 46.9099 17.4026 46.8759 17.6224 46.724C17.8417 46.5721 17.9728 46.3218 17.9722 46.0549V32.0676C17.9722 31.2961 18.2784 30.5561 18.8241 30.0104C19.3699 29.4646 20.1098 29.1584 20.8814 29.1584H27.0472C27.8253 29.1608 28.5706 29.4706 29.1206 30.0205C29.6711 30.571 29.9809 31.3164 29.9833 32.0945V46.0556V46.055C29.9827 46.3219 30.1138 46.5722 30.333 46.7241C30.5529 46.876 30.8335 46.91 31.0825 46.8146C34.5053 45.4014 37.4319 43.0051 39.4934 39.929C41.5542 36.853 42.657 33.2347 42.6617 29.5319V21.5245C42.648 21.3887 42.6212 21.2546 42.5819 21.1241C44.1499 20.6219 45.5185 19.6359 46.4921 18.3078C47.465 16.9792 47.9934 15.3772 47.9999 13.7304ZM10.6321 13.7304C10.7095 16.8476 5.55826 17.0525 5.32063 13.9973L7.37556 5.50975H10.6322L10.6321 13.7304ZM21.3086 13.7304C21.3634 16.9947 15.915 16.994 15.9703 13.7304V5.50975H21.3086V13.7304ZM31.9851 13.7304C32.0399 16.9947 26.5915 16.994 26.6469 13.7304V5.50975H31.9851V13.7304ZM40.2058 16.1863C39.4884 16.2917 38.7604 16.082 38.208 15.612C37.6557 15.1413 37.3334 14.4555 37.3233 13.7304V5.50981H40.5799L42.6355 13.9974H42.6349C42.5735 14.5985 42.2911 15.1556 41.8425 15.5601C41.3933 15.9646 40.8104 16.1881 40.2058 16.1863Z" fill="#EF6820"/>
</svg>
