<svg width="347" height="76" viewBox="0 0 347 76" fill="none" xmlns="http://www.w3.org/2000/svg">
<g filter="url(#filter0_d_641_118341)">
<rect x="2" y="1" width="343" height="72" rx="8" fill="white"/>
<path fill-rule="evenodd" clip-rule="evenodd" d="M113.384 25.8035C113.283 26.0469 113.228 26.3414 113.228 26.6815V47.3179C113.228 47.6589 113.283 47.9535 113.385 48.1968L124.58 36.9995L113.384 25.8035ZM114.081 48.9147C114.493 49.0758 115.022 49.0135 115.599 48.6868L128.778 41.1974L125.287 37.7066L114.081 48.9147ZM129.681 40.6856L133.795 38.348C135.098 37.6062 135.098 36.3941 133.795 35.6533L129.679 33.3145L125.995 36.9994L129.681 40.6856ZM128.777 32.8021L115.599 25.3136C115.022 24.9861 114.492 24.9242 114.081 25.0856L125.287 36.2923L128.777 32.8021Z" fill="#141414"/>
<path d="M147.012 28L149.988 19.36H151.158L154.134 28H153.216L150.39 19.852H150.738L147.93 28H147.012ZM148.338 25.906V25.078H152.802V25.906H148.338ZM156.489 28L154.137 21.52H155.031L156.945 26.848L158.847 21.52H159.753L157.401 28H156.489ZM162.322 28.18C161.834 28.18 161.424 28.092 161.092 27.916C160.764 27.74 160.518 27.506 160.354 27.214C160.19 26.922 160.108 26.604 160.108 26.26C160.108 25.908 160.178 25.608 160.318 25.36C160.462 25.108 160.656 24.902 160.9 24.742C161.148 24.582 161.434 24.46 161.758 24.376C162.086 24.296 162.448 24.226 162.844 24.166C163.244 24.102 163.634 24.048 164.014 24.004C164.398 23.956 164.734 23.91 165.022 23.866L164.71 24.058C164.722 23.418 164.598 22.944 164.338 22.636C164.078 22.328 163.626 22.174 162.982 22.174C162.538 22.174 162.162 22.274 161.854 22.474C161.55 22.674 161.336 22.99 161.212 23.422L160.354 23.17C160.502 22.59 160.8 22.14 161.248 21.82C161.696 21.5 162.278 21.34 162.994 21.34C163.586 21.34 164.088 21.452 164.5 21.676C164.916 21.896 165.21 22.216 165.382 22.636C165.462 22.824 165.514 23.034 165.538 23.266C165.562 23.498 165.574 23.734 165.574 23.974V28H164.788V26.374L165.016 26.47C164.796 27.026 164.454 27.45 163.99 27.742C163.526 28.034 162.97 28.18 162.322 28.18ZM162.424 27.418C162.836 27.418 163.196 27.344 163.504 27.196C163.812 27.048 164.06 26.846 164.248 26.59C164.436 26.33 164.558 26.038 164.614 25.714C164.662 25.506 164.688 25.278 164.692 25.03C164.696 24.778 164.698 24.59 164.698 24.466L165.034 24.64C164.734 24.68 164.408 24.72 164.056 24.76C163.708 24.8 163.364 24.846 163.024 24.898C162.688 24.95 162.384 25.012 162.112 25.084C161.928 25.136 161.75 25.21 161.578 25.306C161.406 25.398 161.264 25.522 161.152 25.678C161.044 25.834 160.99 26.028 160.99 26.26C160.99 26.448 161.036 26.63 161.128 26.806C161.224 26.982 161.376 27.128 161.584 27.244C161.796 27.36 162.076 27.418 162.424 27.418ZM167.256 20.29V19.3H168.138V20.29H167.256ZM167.256 28V21.52H168.138V28H167.256ZM170.057 28V19.18H170.939V28H170.057ZM174.591 28.18C174.103 28.18 173.693 28.092 173.361 27.916C173.033 27.74 172.787 27.506 172.623 27.214C172.459 26.922 172.377 26.604 172.377 26.26C172.377 25.908 172.447 25.608 172.587 25.36C172.731 25.108 172.925 24.902 173.169 24.742C173.417 24.582 173.703 24.46 174.027 24.376C174.355 24.296 174.717 24.226 175.113 24.166C175.513 24.102 175.903 24.048 176.283 24.004C176.667 23.956 177.003 23.91 177.291 23.866L176.979 24.058C176.991 23.418 176.867 22.944 176.607 22.636C176.347 22.328 175.895 22.174 175.251 22.174C174.807 22.174 174.431 22.274 174.123 22.474C173.819 22.674 173.605 22.99 173.481 23.422L172.623 23.17C172.771 22.59 173.069 22.14 173.517 21.82C173.965 21.5 174.547 21.34 175.263 21.34C175.855 21.34 176.357 21.452 176.769 21.676C177.185 21.896 177.479 22.216 177.651 22.636C177.731 22.824 177.783 23.034 177.807 23.266C177.831 23.498 177.843 23.734 177.843 23.974V28H177.057V26.374L177.285 26.47C177.065 27.026 176.723 27.45 176.259 27.742C175.795 28.034 175.239 28.18 174.591 28.18ZM174.693 27.418C175.105 27.418 175.465 27.344 175.773 27.196C176.081 27.048 176.329 26.846 176.517 26.59C176.705 26.33 176.827 26.038 176.883 25.714C176.931 25.506 176.957 25.278 176.961 25.03C176.965 24.778 176.967 24.59 176.967 24.466L177.303 24.64C177.003 24.68 176.677 24.72 176.325 24.76C175.977 24.8 175.633 24.846 175.293 24.898C174.957 24.95 174.653 25.012 174.381 25.084C174.197 25.136 174.019 25.21 173.847 25.306C173.675 25.398 173.533 25.522 173.421 25.678C173.313 25.834 173.259 26.028 173.259 26.26C173.259 26.448 173.305 26.63 173.397 26.806C173.493 26.982 173.645 27.128 173.853 27.244C174.065 27.36 174.345 27.418 174.693 27.418ZM182.315 28.18C181.719 28.18 181.215 28.03 180.803 27.73C180.391 27.426 180.079 27.016 179.867 26.5C179.655 25.98 179.549 25.398 179.549 24.754C179.549 24.098 179.655 23.514 179.867 23.002C180.083 22.486 180.399 22.08 180.815 21.784C181.231 21.488 181.743 21.34 182.351 21.34C182.943 21.34 183.451 21.49 183.875 21.79C184.299 22.09 184.623 22.498 184.847 23.014C185.075 23.53 185.189 24.11 185.189 24.754C185.189 25.402 185.075 25.984 184.847 26.5C184.619 27.016 184.291 27.426 183.863 27.73C183.435 28.03 182.919 28.18 182.315 28.18ZM179.399 28V19.36H180.287V23.122H180.191V28H179.399ZM182.225 27.358C182.677 27.358 183.053 27.244 183.353 27.016C183.653 26.788 183.877 26.478 184.025 26.086C184.177 25.69 184.253 25.246 184.253 24.754C184.253 24.266 184.179 23.826 184.031 23.434C183.883 23.042 183.657 22.732 183.353 22.504C183.053 22.276 182.671 22.162 182.207 22.162C181.755 22.162 181.379 22.272 181.079 22.492C180.783 22.712 180.561 23.018 180.413 23.41C180.265 23.798 180.191 24.246 180.191 24.754C180.191 25.254 180.265 25.702 180.413 26.098C180.561 26.49 180.785 26.798 181.085 27.022C181.385 27.246 181.765 27.358 182.225 27.358ZM186.627 28V19.18H187.509V28H186.627ZM192.05 28.18C191.418 28.18 190.87 28.04 190.406 27.76C189.946 27.48 189.588 27.086 189.332 26.578C189.076 26.07 188.948 25.474 188.948 24.79C188.948 24.082 189.074 23.47 189.326 22.954C189.578 22.438 189.932 22.04 190.388 21.76C190.848 21.48 191.39 21.34 192.014 21.34C192.654 21.34 193.2 21.488 193.652 21.784C194.104 22.076 194.446 22.496 194.678 23.044C194.91 23.592 195.016 24.246 194.996 25.006H194.096V24.694C194.08 23.854 193.898 23.22 193.55 22.792C193.206 22.364 192.702 22.15 192.038 22.15C191.342 22.15 190.808 22.376 190.436 22.828C190.068 23.28 189.884 23.924 189.884 24.76C189.884 25.576 190.068 26.21 190.436 26.662C190.808 27.11 191.334 27.334 192.014 27.334C192.478 27.334 192.882 27.228 193.226 27.016C193.574 26.8 193.848 26.49 194.048 26.086L194.87 26.404C194.614 26.968 194.236 27.406 193.736 27.718C193.24 28.026 192.678 28.18 192.05 28.18ZM189.572 25.006V24.268H194.522V25.006H189.572ZM201.436 28.18C200.792 28.18 200.242 28.034 199.786 27.742C199.33 27.45 198.98 27.046 198.736 26.53C198.492 26.014 198.37 25.422 198.37 24.754C198.37 24.074 198.494 23.478 198.742 22.966C198.99 22.454 199.342 22.056 199.798 21.772C200.258 21.484 200.804 21.34 201.436 21.34C202.084 21.34 202.636 21.486 203.092 21.778C203.552 22.066 203.902 22.468 204.142 22.984C204.386 23.496 204.508 24.086 204.508 24.754C204.508 25.434 204.386 26.032 204.142 26.548C203.898 27.06 203.546 27.46 203.086 27.748C202.626 28.036 202.076 28.18 201.436 28.18ZM201.436 27.334C202.156 27.334 202.692 27.096 203.044 26.62C203.396 26.14 203.572 25.518 203.572 24.754C203.572 23.97 203.394 23.346 203.038 22.882C202.686 22.418 202.152 22.186 201.436 22.186C200.952 22.186 200.552 22.296 200.236 22.516C199.924 22.732 199.69 23.034 199.534 23.422C199.382 23.806 199.306 24.25 199.306 24.754C199.306 25.534 199.486 26.16 199.846 26.632C200.206 27.1 200.736 27.334 201.436 27.334ZM210.511 28V24.694C210.511 24.334 210.477 24.004 210.409 23.704C210.341 23.4 210.231 23.136 210.079 22.912C209.931 22.684 209.737 22.508 209.497 22.384C209.261 22.26 208.973 22.198 208.633 22.198C208.321 22.198 208.045 22.252 207.805 22.36C207.569 22.468 207.369 22.624 207.205 22.828C207.045 23.028 206.923 23.272 206.839 23.56C206.755 23.848 206.713 24.176 206.713 24.544L206.089 24.406C206.089 23.742 206.205 23.184 206.437 22.732C206.669 22.28 206.989 21.938 207.397 21.706C207.805 21.474 208.273 21.358 208.801 21.358C209.189 21.358 209.527 21.418 209.815 21.538C210.107 21.658 210.353 21.82 210.553 22.024C210.757 22.228 210.921 22.462 211.045 22.726C211.169 22.986 211.259 23.264 211.315 23.56C211.371 23.852 211.399 24.144 211.399 24.436V28H210.511ZM205.825 28V21.52H206.623V23.116H206.713V28H205.825Z" fill="#344054"/>
<path d="M148.032 50V37.04H153.27C153.396 37.04 153.552 37.046 153.738 37.058C153.924 37.064 154.101 37.082 154.269 37.112C154.989 37.226 155.589 37.472 156.069 37.85C156.555 38.228 156.918 38.705 157.158 39.281C157.398 39.857 157.518 40.493 157.518 41.189C157.518 41.891 157.398 42.53 157.158 43.106C156.918 43.682 156.555 44.159 156.069 44.537C155.589 44.915 154.989 45.161 154.269 45.275C154.101 45.299 153.921 45.317 153.729 45.329C153.543 45.341 153.39 45.347 153.27 45.347H149.913V50H148.032ZM149.913 43.565H153.198C153.318 43.565 153.45 43.559 153.594 43.547C153.744 43.535 153.885 43.514 154.017 43.484C154.401 43.394 154.71 43.229 154.944 42.989C155.178 42.743 155.346 42.461 155.448 42.143C155.55 41.825 155.601 41.507 155.601 41.189C155.601 40.871 155.55 40.556 155.448 40.244C155.346 39.926 155.178 39.647 154.944 39.407C154.71 39.161 154.401 38.993 154.017 38.903C153.885 38.867 153.744 38.843 153.594 38.831C153.45 38.819 153.318 38.813 153.198 38.813H149.913V43.565ZM159.498 50V36.77H161.379V50H159.498ZM166.826 50.27C166.106 50.27 165.503 50.138 165.017 49.874C164.531 49.604 164.162 49.25 163.91 48.812C163.664 48.368 163.541 47.882 163.541 47.354C163.541 46.862 163.628 46.43 163.802 46.058C163.976 45.686 164.234 45.371 164.576 45.113C164.918 44.849 165.338 44.636 165.836 44.474C166.268 44.348 166.757 44.237 167.303 44.141C167.849 44.045 168.422 43.955 169.022 43.871C169.628 43.787 170.228 43.703 170.822 43.619L170.138 43.997C170.15 43.235 169.988 42.671 169.652 42.305C169.322 41.933 168.752 41.747 167.942 41.747C167.432 41.747 166.964 41.867 166.538 42.107C166.112 42.341 165.815 42.731 165.647 43.277L163.892 42.737C164.132 41.903 164.588 41.24 165.26 40.748C165.938 40.256 166.838 40.01 167.96 40.01C168.83 40.01 169.586 40.16 170.228 40.46C170.876 40.754 171.35 41.222 171.65 41.864C171.806 42.182 171.902 42.518 171.938 42.872C171.974 43.226 171.992 43.607 171.992 44.015V50H170.327V47.777L170.651 48.065C170.249 48.809 169.736 49.364 169.112 49.73C168.494 50.09 167.732 50.27 166.826 50.27ZM167.159 48.731C167.693 48.731 168.152 48.638 168.536 48.452C168.92 48.26 169.229 48.017 169.463 47.723C169.697 47.429 169.85 47.123 169.922 46.805C170.024 46.517 170.081 46.193 170.093 45.833C170.111 45.473 170.12 45.185 170.12 44.969L170.732 45.194C170.138 45.284 169.598 45.365 169.112 45.437C168.626 45.509 168.185 45.581 167.789 45.653C167.399 45.719 167.051 45.8 166.745 45.896C166.487 45.986 166.256 46.094 166.052 46.22C165.854 46.346 165.695 46.499 165.575 46.679C165.461 46.859 165.404 47.078 165.404 47.336C165.404 47.588 165.467 47.822 165.593 48.038C165.719 48.248 165.911 48.416 166.169 48.542C166.427 48.668 166.757 48.731 167.159 48.731ZM175.098 54.32L176.979 49.199L177.006 50.711L172.767 40.28H174.729L177.897 48.335H177.321L180.345 40.28H182.253L176.889 54.32H175.098ZM191.965 50.27C191.035 50.27 190.195 50.111 189.445 49.793C188.701 49.469 188.086 49.01 187.6 48.416C187.12 47.816 186.808 47.105 186.664 46.283L188.626 45.986C188.824 46.778 189.238 47.396 189.868 47.84C190.498 48.278 191.233 48.497 192.073 48.497C192.595 48.497 193.075 48.416 193.513 48.254C193.951 48.086 194.302 47.849 194.566 47.543C194.836 47.231 194.971 46.859 194.971 46.427C194.971 46.193 194.929 45.986 194.845 45.806C194.767 45.626 194.656 45.47 194.512 45.338C194.374 45.2 194.203 45.083 193.999 44.987C193.801 44.885 193.582 44.798 193.342 44.726L190.021 43.745C189.697 43.649 189.367 43.526 189.031 43.376C188.695 43.22 188.386 43.019 188.104 42.773C187.828 42.521 187.603 42.212 187.429 41.846C187.255 41.474 187.168 41.024 187.168 40.496C187.168 39.698 187.372 39.023 187.78 38.471C188.194 37.913 188.752 37.493 189.454 37.211C190.156 36.923 190.942 36.779 191.812 36.779C192.688 36.791 193.471 36.947 194.161 37.247C194.857 37.547 195.433 37.979 195.889 38.543C196.351 39.101 196.669 39.779 196.843 40.577L194.827 40.919C194.737 40.433 194.545 40.016 194.251 39.668C193.957 39.314 193.597 39.044 193.171 38.858C192.745 38.666 192.283 38.567 191.785 38.561C191.305 38.549 190.864 38.621 190.462 38.777C190.066 38.933 189.748 39.152 189.508 39.434C189.274 39.716 189.157 40.04 189.157 40.406C189.157 40.766 189.262 41.057 189.472 41.279C189.682 41.501 189.94 41.678 190.246 41.81C190.558 41.936 190.867 42.041 191.173 42.125L193.567 42.8C193.867 42.884 194.206 42.998 194.584 43.142C194.968 43.28 195.337 43.475 195.691 43.727C196.051 43.979 196.348 44.315 196.582 44.735C196.816 45.149 196.933 45.671 196.933 46.301C196.933 46.955 196.801 47.531 196.537 48.029C196.273 48.521 195.91 48.935 195.448 49.271C194.992 49.601 194.464 49.85 193.864 50.018C193.264 50.186 192.631 50.27 191.965 50.27ZM204.413 50C203.801 50.12 203.201 50.171 202.613 50.153C202.025 50.135 201.5 50.021 201.038 49.811C200.576 49.601 200.228 49.271 199.994 48.821C199.784 48.419 199.67 48.011 199.652 47.597C199.64 47.177 199.634 46.703 199.634 46.175V37.58H201.524V46.085C201.524 46.475 201.527 46.814 201.533 47.102C201.545 47.39 201.608 47.633 201.722 47.831C201.938 48.203 202.28 48.416 202.748 48.47C203.222 48.518 203.777 48.497 204.413 48.407V50ZM197.771 41.792V40.28H204.413V41.792H197.771ZM210.244 50.27C209.272 50.27 208.429 50.051 207.715 49.613C207.001 49.175 206.449 48.572 206.059 47.804C205.675 47.03 205.483 46.139 205.483 45.131C205.483 44.117 205.681 43.226 206.077 42.458C206.473 41.684 207.028 41.084 207.742 40.658C208.456 40.226 209.29 40.01 210.244 40.01C211.216 40.01 212.059 40.229 212.773 40.667C213.487 41.105 214.039 41.708 214.429 42.476C214.819 43.244 215.014 44.129 215.014 45.131C215.014 46.145 214.816 47.039 214.42 47.813C214.03 48.581 213.478 49.184 212.764 49.622C212.05 50.054 211.21 50.27 210.244 50.27ZM210.244 48.497C211.174 48.497 211.867 48.185 212.323 47.561C212.785 46.931 213.016 46.121 213.016 45.131C213.016 44.117 212.782 43.307 212.314 42.701C211.852 42.089 211.162 41.783 210.244 41.783C209.614 41.783 209.095 41.927 208.687 42.215C208.279 42.497 207.976 42.89 207.778 43.394C207.58 43.892 207.481 44.471 207.481 45.131C207.481 46.151 207.715 46.967 208.183 47.579C208.651 48.191 209.338 48.497 210.244 48.497ZM216.991 50V40.28H218.665V42.638L218.431 42.332C218.551 42.02 218.707 41.735 218.899 41.477C219.091 41.213 219.313 40.997 219.565 40.829C219.811 40.649 220.084 40.511 220.384 40.415C220.69 40.313 221.002 40.253 221.32 40.235C221.638 40.211 221.944 40.226 222.238 40.28V42.044C221.92 41.96 221.566 41.936 221.176 41.972C220.792 42.008 220.438 42.131 220.114 42.341C219.808 42.539 219.565 42.779 219.385 43.061C219.211 43.343 219.085 43.658 219.007 44.006C218.929 44.348 218.89 44.711 218.89 45.095V50H216.991ZM228.088 50.27C227.122 50.27 226.273 50.06 225.541 49.64C224.815 49.214 224.248 48.623 223.84 47.867C223.438 47.105 223.237 46.223 223.237 45.221C223.237 44.159 223.435 43.238 223.831 42.458C224.233 41.678 224.791 41.075 225.505 40.649C226.219 40.223 227.05 40.01 227.998 40.01C228.988 40.01 229.831 40.241 230.527 40.703C231.223 41.159 231.742 41.81 232.084 42.656C232.432 43.502 232.57 44.507 232.498 45.671H230.617V44.987C230.605 43.859 230.389 43.025 229.969 42.485C229.555 41.945 228.922 41.675 228.07 41.675C227.128 41.675 226.42 41.972 225.946 42.566C225.472 43.16 225.235 44.018 225.235 45.14C225.235 46.208 225.472 47.036 225.946 47.624C226.42 48.206 227.104 48.497 227.998 48.497C228.586 48.497 229.093 48.365 229.519 48.101C229.951 47.831 230.287 47.447 230.527 46.949L232.372 47.534C231.994 48.404 231.421 49.079 230.653 49.559C229.885 50.033 229.03 50.27 228.088 50.27ZM224.623 45.671V44.204H231.562V45.671H224.623Z" fill="#344054"/>
<rect x="2.5" y="1.5" width="342" height="71" rx="7.5" stroke="#D0D5DD"/>
</g>
<defs>
<filter id="filter0_d_641_118341" x="0" y="0" width="347" height="76" filterUnits="userSpaceOnUse" color-interpolation-filters="sRGB">
<feFlood flood-opacity="0" result="BackgroundImageFix"/>
<feColorMatrix in="SourceAlpha" type="matrix" values="0 0 0 0 0 0 0 0 0 0 0 0 0 0 0 0 0 0 127 0" result="hardAlpha"/>
<feOffset dy="1"/>
<feGaussianBlur stdDeviation="1"/>
<feColorMatrix type="matrix" values="0 0 0 0 0.0627451 0 0 0 0 0.0941176 0 0 0 0 0.156863 0 0 0 0.05 0"/>
<feBlend mode="normal" in2="BackgroundImageFix" result="effect1_dropShadow_641_118341"/>
<feBlend mode="normal" in="SourceGraphic" in2="effect1_dropShadow_641_118341" result="shape"/>
</filter>
</defs>
</svg>
