<svg width="190" height="59" viewBox="0 0 190 59" fill="none" xmlns="http://www.w3.org/2000/svg">
<path d="M50.4505 45.8256H25.624V32.3536C25.624 24.2213 32.2219 17.5928 40.3849 17.5928H65.2113V31.0647C65.2113 39.2277 58.6134 45.8256 50.4505 45.8256Z" fill="white"/>
<path d="M86.8466 0.868164V58.8682H42.1958V54.7253H53.7958C66.1016 54.7253 76.0444 44.7518 76.0444 32.4766V10.8417H35.9048C23.5989 10.8417 13.6561 20.8153 13.6561 33.0904V58.8682H0V30.8195C0 14.2787 13.4106 0.868164 29.9513 0.868164H86.8466Z" fill="white"/>
<path d="M108.455 26.1591V47.9547H103.589V22.6447H108.1L108.455 26.1591ZM120.028 31.5826V31.9374C120.028 33.2666 119.871 34.5 119.555 35.6376C119.251 36.7753 118.801 37.7665 118.204 38.6113C117.607 39.4448 116.863 40.0981 115.973 40.5712C115.095 41.033 114.081 41.2639 112.932 41.2639C111.817 41.2639 110.848 41.0386 110.026 40.5881C109.204 40.1375 108.511 39.5068 107.948 38.6958C107.396 37.8735 106.951 36.9217 106.613 35.8404C106.275 34.759 106.016 33.5989 105.836 32.3598V31.4306C106.016 30.1014 106.275 28.8849 106.613 27.7811C106.951 26.6659 107.396 25.7029 107.948 24.8919C108.511 24.0696 109.198 23.4332 110.009 22.9827C110.832 22.5321 111.795 22.3068 112.898 22.3068C114.059 22.3068 115.078 22.5265 115.957 22.9658C116.846 23.4051 117.59 24.0358 118.187 24.8581C118.795 25.6804 119.251 26.6603 119.555 27.798C119.871 28.9356 120.028 30.1972 120.028 31.5826ZM115.146 31.9374V31.5826C115.146 30.8054 115.078 30.0902 114.943 29.4369C114.819 28.7723 114.616 28.1922 114.335 27.6966C114.064 27.201 113.704 26.818 113.253 26.5477C112.814 26.2661 112.279 26.1253 111.648 26.1253C110.984 26.1253 110.415 26.2323 109.942 26.4463C109.48 26.6603 109.103 26.9701 108.81 27.3756C108.517 27.7811 108.297 28.2654 108.151 28.8286C108.004 29.3918 107.914 30.0282 107.88 30.7378V33.0864C107.937 33.9199 108.094 34.6689 108.353 35.3335C108.613 35.9868 109.012 36.5049 109.553 36.8879C110.094 37.2709 110.803 37.4624 111.682 37.4624C112.324 37.4624 112.865 37.3216 113.304 37.04C113.743 36.7471 114.098 36.3472 114.368 35.8404C114.65 35.3335 114.847 34.7478 114.96 34.0832C115.084 33.4186 115.146 32.7034 115.146 31.9374Z" fill="white"/>
<path d="M133.174 36.55V22.6447H138.04V40.926H133.461L133.174 36.55ZM133.715 32.7991L135.151 32.7653C135.151 33.9818 135.01 35.1138 134.729 36.1614C134.447 37.1977 134.025 38.0988 133.461 38.8647C132.898 39.6194 132.189 40.2108 131.332 40.6388C130.476 41.0555 129.468 41.2639 128.308 41.2639C127.418 41.2639 126.596 41.14 125.841 40.8922C125.098 40.6331 124.456 40.2333 123.915 39.6926C123.386 39.1407 122.969 38.4367 122.665 37.5806C122.372 36.7133 122.226 35.6714 122.226 34.4549V22.6447H127.092V34.4887C127.092 35.0294 127.154 35.4856 127.277 35.8573C127.413 36.229 127.598 36.5331 127.835 36.7696C128.072 37.0062 128.348 37.1751 128.663 37.2765C128.99 37.3779 129.35 37.4286 129.744 37.4286C130.747 37.4286 131.535 37.2258 132.11 36.8203C132.695 36.4148 133.107 35.8629 133.343 35.1645C133.591 34.4549 133.715 33.6664 133.715 32.7991Z" fill="white"/>
<path d="M145.931 26.6322V40.926H141.065V22.6447H145.644L145.931 26.6322ZM151.439 22.5265L151.355 27.0377C151.118 27.0039 150.831 26.9757 150.493 26.9532C150.166 26.9194 149.868 26.9025 149.598 26.9025C148.91 26.9025 148.313 26.9926 147.807 27.1728C147.311 27.3418 146.894 27.5952 146.556 27.9331C146.23 28.271 145.982 28.6822 145.813 29.1665C145.655 29.6509 145.565 30.2028 145.543 30.8223L144.563 30.5182C144.563 29.3355 144.681 28.2485 144.917 27.2573C145.154 26.2548 145.497 25.3819 145.948 24.6384C146.41 23.895 146.973 23.3206 147.638 22.9151C148.302 22.5096 149.062 22.3068 149.919 22.3068C150.189 22.3068 150.465 22.3294 150.746 22.3744C151.028 22.4082 151.259 22.4589 151.439 22.5265Z" fill="white"/>
<path d="M166.156 34.4887C166.156 34.0494 166.088 33.6552 165.953 33.306C165.829 32.9456 165.593 32.6189 165.244 32.326C164.895 32.0219 164.405 31.7234 163.774 31.4306C163.143 31.1377 162.326 30.8336 161.324 30.5182C160.209 30.1577 159.15 29.7522 158.147 29.3017C157.156 28.8511 156.278 28.3274 155.512 27.7304C154.757 27.1221 154.16 26.4181 153.721 25.6184C153.293 24.8187 153.079 23.8894 153.079 22.8306C153.079 21.8056 153.304 20.8763 153.755 20.0428C154.205 19.198 154.836 18.4771 155.647 17.8801C156.458 17.2719 157.415 16.8044 158.519 16.4778C159.634 16.1511 160.856 15.9878 162.186 15.9878C163.999 15.9878 165.582 16.3144 166.933 16.9677C168.285 17.6211 169.332 18.5165 170.076 19.6542C170.831 20.7918 171.208 22.0928 171.208 23.5571H166.173C166.173 22.8362 166.021 22.2055 165.717 21.6648C165.424 21.1129 164.973 20.6792 164.365 20.3638C163.768 20.0484 163.013 19.8907 162.101 19.8907C161.222 19.8907 160.49 20.0259 159.905 20.2962C159.319 20.5553 158.88 20.9101 158.587 21.3607C158.294 21.8 158.147 22.2956 158.147 22.8475C158.147 23.2643 158.249 23.6416 158.452 23.9795C158.666 24.3174 158.981 24.6328 159.398 24.9257C159.815 25.2185 160.327 25.4945 160.935 25.7536C161.544 26.0126 162.248 26.2661 163.047 26.5139C164.388 26.9194 165.565 27.3756 166.578 27.8824C167.603 28.3893 168.46 28.9581 169.147 29.5889C169.834 30.2197 170.352 30.935 170.701 31.7347C171.05 32.5344 171.225 33.4412 171.225 34.4549C171.225 35.525 171.016 36.4824 170.6 37.3272C170.183 38.172 169.58 38.8872 168.792 39.473C168.003 40.0587 167.063 40.5036 165.97 40.8077C164.878 41.1119 163.655 41.2639 162.304 41.2639C161.087 41.2639 159.888 41.1062 158.705 40.7908C157.522 40.4642 156.447 39.9742 155.478 39.3209C154.52 38.6676 153.755 37.8341 153.18 36.8203C152.606 35.8066 152.318 34.607 152.318 33.2215H157.404C157.404 33.9875 157.522 34.6351 157.759 35.1645C157.995 35.6939 158.328 36.122 158.756 36.4486C159.195 36.7753 159.713 37.0118 160.31 37.1582C160.918 37.3047 161.583 37.3779 162.304 37.3779C163.182 37.3779 163.903 37.254 164.466 37.0062C165.041 36.7584 165.463 36.4148 165.734 35.9755C166.015 35.5362 166.156 35.0406 166.156 34.4887Z" fill="white"/>
<path d="M182.089 41.2639C180.67 41.2639 179.397 41.0386 178.271 40.5881C177.145 40.1263 176.187 39.4899 175.399 38.6789C174.622 37.8679 174.025 36.9273 173.608 35.8573C173.191 34.7759 172.983 33.627 172.983 32.4105V31.7347C172.983 30.3492 173.18 29.082 173.574 27.9331C173.968 26.7842 174.531 25.7874 175.264 24.9426C176.007 24.0978 176.908 23.4501 177.967 22.9996C179.026 22.5377 180.22 22.3068 181.549 22.3068C182.844 22.3068 183.993 22.5208 184.996 22.9489C185.998 23.3769 186.837 23.9851 187.513 24.7736C188.2 25.5621 188.718 26.5082 189.067 27.6121C189.417 28.7047 189.591 29.9212 189.591 31.2616V33.2891H175.061V30.0451H184.81V29.6734C184.81 28.9976 184.686 28.3949 184.438 27.8655C184.201 27.3249 183.841 26.8969 183.357 26.5815C182.872 26.2661 182.253 26.1084 181.498 26.1084C180.856 26.1084 180.304 26.2492 179.842 26.5308C179.381 26.8124 179.003 27.2066 178.71 27.7135C178.429 28.2204 178.215 28.8173 178.068 29.5044C177.933 30.1803 177.866 30.9237 177.866 31.7347V32.4105C177.866 33.1427 177.967 33.8185 178.17 34.438C178.384 35.0575 178.682 35.5926 179.065 36.0431C179.459 36.4937 179.932 36.8429 180.484 37.0907C181.048 37.3385 181.684 37.4624 182.394 37.4624C183.272 37.4624 184.089 37.2934 184.844 36.9555C185.609 36.6063 186.268 36.0825 186.82 35.3842L189.186 37.9523C188.803 38.5043 188.279 39.0337 187.614 39.5406C186.961 40.0474 186.173 40.4642 185.249 40.7908C184.325 41.1062 183.272 41.2639 182.089 41.2639Z" fill="white"/>
</svg>
