<svg width="131" height="40" viewBox="0 0 131 40" fill="none" xmlns="http://www.w3.org/2000/svg">
<path d="M34.7936 31.0051H17.6719V21.7141C17.6719 16.1056 22.2221 11.5342 27.8518 11.5342H44.9735V20.8252C44.9735 26.4548 40.4232 31.0051 34.7936 31.0051Z" fill="#141414"/>
<path d="M59.8942 0V40H29.1005V37.1429H37.1005C45.5873 37.1429 52.4444 30.2645 52.4444 21.7989V6.87831H24.7619C16.2751 6.87831 9.41799 13.7566 9.41799 22.2222V40H0V20.6561C0 9.24867 9.24868 0 20.6561 0H59.8942Z" fill="#141414"/>
<path d="M74.7963 17.4419V32.4734H71.4404V15.0182H74.5516L74.7963 17.4419ZM82.7781 21.1823V21.427C82.7781 22.3436 82.6693 23.1943 82.4518 23.9789C82.2421 24.7634 81.9314 25.447 81.5197 26.0297C81.1079 26.6045 80.5952 27.0551 79.9816 27.3813C79.3756 27.6998 78.6765 27.8591 77.8841 27.8591C77.1151 27.8591 76.447 27.7037 75.8799 27.393C75.3129 27.0822 74.8351 26.6472 74.4467 26.0879C74.0661 25.5208 73.7592 24.8644 73.5262 24.1187C73.2931 23.3729 73.1145 22.5728 72.9902 21.7183V21.0774C73.1145 20.1608 73.2931 19.3218 73.5262 18.5605C73.7592 17.7915 74.0661 17.1273 74.4467 16.568C74.8351 16.0009 75.309 15.562 75.8683 15.2513C76.4354 14.9406 77.0996 14.7852 77.8608 14.7852C78.661 14.7852 79.364 14.9367 79.9699 15.2396C80.5836 15.5426 81.0963 15.9776 81.508 16.5447C81.9275 17.1118 82.2421 17.7876 82.4518 18.5722C82.6693 19.3568 82.7781 20.2268 82.7781 21.1823ZM79.4106 21.427V21.1823C79.4106 20.6463 79.364 20.153 79.2708 19.7025C79.1853 19.2441 79.0455 18.8441 78.8513 18.5023C78.6648 18.1605 78.4163 17.8964 78.1055 17.7099C77.8026 17.5157 77.4336 17.4186 76.9986 17.4186C76.5402 17.4186 76.148 17.4924 75.8217 17.64C75.5032 17.7876 75.243 18.0012 75.041 18.2809C74.839 18.5605 74.6875 18.8946 74.5865 19.283C74.4856 19.6714 74.4234 20.1103 74.4001 20.5997V22.2194C74.439 22.7942 74.5477 23.3108 74.7264 23.7691C74.905 24.2197 75.1808 24.577 75.5537 24.8411C75.9266 25.1052 76.416 25.2373 77.0219 25.2373C77.4647 25.2373 77.8375 25.1402 78.1405 24.946C78.4435 24.744 78.6881 24.4682 78.8746 24.1187C79.0688 23.7691 79.2047 23.3652 79.2824 22.9068C79.3679 22.4485 79.4106 21.9552 79.4106 21.427Z" fill="black"/>
<path d="M91.844 24.6081V15.0182H95.1999V27.626H92.0421L91.844 24.6081ZM92.2169 22.0213L93.2074 21.998C93.2074 22.8369 93.1103 23.6176 92.916 24.3401C92.7218 25.0547 92.4305 25.6762 92.0421 26.2044C91.6537 26.7249 91.1643 27.1327 90.5739 27.4279C89.9836 27.7153 89.2883 27.8591 88.4882 27.8591C87.8745 27.8591 87.3074 27.7736 86.787 27.6027C86.2742 27.424 85.8315 27.1483 85.4586 26.7754C85.0935 26.3948 84.8061 25.9092 84.5963 25.3189C84.3943 24.7207 84.2934 24.0022 84.2934 23.1632V15.0182H87.6492V23.1865C87.6492 23.5594 87.6919 23.874 87.7774 24.1303C87.8706 24.3867 87.9988 24.5964 88.1619 24.7596C88.3251 24.9227 88.5154 25.0392 88.7329 25.1091C88.9582 25.179 89.2067 25.214 89.4786 25.214C90.17 25.214 90.7138 25.0742 91.1099 24.7945C91.5139 24.5149 91.7974 24.1342 91.9606 23.6526C92.1315 23.1632 92.2169 22.6194 92.2169 22.0213Z" fill="black"/>
<path d="M100.642 17.7682V27.626H97.2861V15.0182H100.444L100.642 17.7682ZM104.441 14.9367L104.382 18.0478C104.219 18.0245 104.021 18.0051 103.788 17.9896C103.563 17.9663 103.357 17.9546 103.171 17.9546C102.697 17.9546 102.285 18.0168 101.935 18.1411C101.594 18.2576 101.306 18.4324 101.073 18.6654C100.848 18.8985 100.677 19.182 100.56 19.516C100.452 19.8501 100.39 20.2307 100.374 20.6579L99.6981 20.4482C99.6981 19.6325 99.7797 18.8829 99.9428 18.1993C100.106 17.5079 100.343 16.9059 100.654 16.3932C100.972 15.8805 101.361 15.4843 101.819 15.2047C102.277 14.925 102.802 14.7852 103.392 14.7852C103.578 14.7852 103.769 14.8007 103.963 14.8318C104.157 14.8551 104.316 14.8901 104.441 14.9367Z" fill="black"/>
<path d="M114.59 23.1865C114.59 22.8835 114.544 22.6116 114.45 22.3708C114.365 22.1223 114.202 21.897 113.961 21.695C113.72 21.4853 113.382 21.2794 112.947 21.0774C112.512 20.8755 111.949 20.6657 111.258 20.4482C110.489 20.1996 109.758 19.92 109.067 19.6092C108.383 19.2985 107.778 18.9373 107.249 18.5256C106.729 18.1061 106.317 17.6206 106.014 17.069C105.719 16.5175 105.571 15.8766 105.571 15.1464C105.571 14.4395 105.727 13.7986 106.037 13.2238C106.348 12.6412 106.783 12.144 107.343 11.7323C107.902 11.3128 108.562 10.9904 109.323 10.7652C110.092 10.5399 110.935 10.4272 111.852 10.4272C113.103 10.4272 114.194 10.6525 115.126 11.1031C116.058 11.5536 116.781 12.1712 117.294 12.9558C117.814 13.7404 118.074 14.6376 118.074 15.6475H114.602C114.602 15.1503 114.497 14.7153 114.287 14.3424C114.085 13.9618 113.775 13.6627 113.355 13.4452C112.943 13.2277 112.423 13.1189 111.794 13.1189C111.188 13.1189 110.683 13.2121 110.279 13.3986C109.875 13.5772 109.572 13.8219 109.37 14.1327C109.168 14.4356 109.067 14.7774 109.067 15.1581C109.067 15.4455 109.137 15.7057 109.277 15.9388C109.424 16.1718 109.642 16.3893 109.929 16.5913C110.217 16.7933 110.57 16.9836 110.99 17.1623C111.409 17.3409 111.895 17.5157 112.446 17.6866C113.371 17.9663 114.182 18.2809 114.882 18.6305C115.588 18.98 116.179 19.3723 116.653 19.8073C117.127 20.2424 117.484 20.7356 117.725 21.2872C117.966 21.8387 118.086 22.4641 118.086 23.1632C118.086 23.9012 117.942 24.5615 117.655 25.1441C117.367 25.7267 116.952 26.22 116.408 26.6239C115.864 27.0279 115.216 27.3347 114.462 27.5444C113.709 27.7542 112.866 27.8591 111.934 27.8591C111.095 27.8591 110.267 27.7503 109.452 27.5328C108.636 27.3075 107.894 26.9696 107.226 26.519C106.566 26.0685 106.037 25.4936 105.641 24.7945C105.245 24.0954 105.047 23.2681 105.047 22.3126H108.554C108.554 22.8408 108.636 23.2875 108.799 23.6526C108.962 24.0177 109.191 24.3129 109.487 24.5382C109.789 24.7634 110.147 24.9266 110.559 25.0276C110.978 25.1285 111.436 25.179 111.934 25.179C112.539 25.179 113.037 25.0936 113.425 24.9227C113.821 24.7518 114.112 24.5149 114.299 24.2119C114.493 23.9089 114.59 23.5671 114.59 23.1865Z" fill="black"/>
<path d="M125.579 27.8591C124.6 27.8591 123.722 27.7037 122.945 27.393C122.169 27.0745 121.508 26.6356 120.964 26.0763C120.428 25.517 120.017 24.8683 119.729 24.1303C119.442 23.3846 119.298 22.5922 119.298 21.7533V21.2872C119.298 20.3317 119.434 19.4578 119.706 18.6654C119.978 17.8731 120.366 17.1856 120.871 16.603C121.384 16.0203 122.005 15.5737 122.736 15.2629C123.466 14.9444 124.289 14.7852 125.206 14.7852C126.099 14.7852 126.892 14.9328 127.583 15.228C128.274 15.5232 128.853 15.9427 129.319 16.4864C129.793 17.0302 130.15 17.6827 130.391 18.444C130.632 19.1975 130.752 20.0365 130.752 20.9609V22.3592H120.731V20.1219H127.455V19.8656C127.455 19.3995 127.369 18.9839 127.198 18.6188C127.035 18.2459 126.787 17.9507 126.453 17.7332C126.119 17.5157 125.691 17.407 125.171 17.407C124.728 17.407 124.348 17.5041 124.029 17.6983C123.711 17.8925 123.45 18.1644 123.248 18.5139C123.054 18.8635 122.907 19.2752 122.806 19.7491C122.712 20.2152 122.666 20.7279 122.666 21.2872V21.7533C122.666 22.2582 122.736 22.7243 122.875 23.1515C123.023 23.5788 123.229 23.9478 123.493 24.2585C123.765 24.5692 124.091 24.81 124.472 24.9809C124.86 25.1518 125.299 25.2373 125.789 25.2373C126.394 25.2373 126.958 25.1208 127.478 24.8877C128.006 24.6469 128.461 24.2857 128.841 23.8041L130.473 25.5752C130.209 25.9559 129.847 26.321 129.389 26.6705C128.939 27.0201 128.395 27.3075 127.758 27.5328C127.121 27.7503 126.394 27.8591 125.579 27.8591Z" fill="black"/>
</svg>
