<svg width="169" height="64" viewBox="0 0 169 64" fill="none" xmlns="http://www.w3.org/2000/svg">
<rect x="0.0338135" width="168.228" height="64" rx="8" fill="white"/>
<path d="M84.4304 33.5053C81.6646 33.5053 79.4103 35.6091 79.4103 38.5066C79.4103 41.3865 81.6646 43.5079 84.4304 43.5079C87.1975 43.5079 89.4517 41.3865 89.4517 38.5066C89.4506 35.6091 87.1963 33.5053 84.4304 33.5053ZM84.4304 41.5394C82.9147 41.5394 81.6082 40.2893 81.6082 38.5078C81.6082 36.7074 82.9158 35.4762 84.4304 35.4762C85.9462 35.4762 87.2527 36.7074 87.2527 38.5078C87.2527 40.2882 85.9462 41.5394 84.4304 41.5394ZM73.4777 33.5053C70.7118 33.5053 68.4576 35.6091 68.4576 38.5066C68.4576 41.3865 70.7118 43.5079 73.4777 43.5079C76.2447 43.5079 78.499 41.3865 78.499 38.5066C78.499 35.6091 76.2447 33.5053 73.4777 33.5053ZM73.4777 41.5394C71.9619 41.5394 70.6554 40.2893 70.6554 38.5078C70.6554 36.7074 71.9631 35.4762 73.4777 35.4762C74.9935 35.4762 76.2999 36.7074 76.2999 38.5078C76.3011 40.2882 74.9935 41.5394 73.4777 41.5394ZM60.4505 35.0411V37.1625H65.5283C65.3766 38.3561 64.9791 39.2274 64.3723 39.8331C63.6338 40.5716 62.4779 41.3865 60.4505 41.3865C57.3249 41.3865 54.8812 38.8664 54.8812 35.7408C54.8812 32.6151 57.3249 30.095 60.4505 30.095C62.1368 30.095 63.3681 30.7583 64.2771 31.6108L65.774 30.1139C64.504 28.9015 62.8189 27.9736 60.4505 27.9736C56.1689 27.9736 52.5693 31.4591 52.5693 35.7408C52.5693 40.0224 56.1689 43.5079 60.4505 43.5079C62.7613 43.5079 64.5052 42.7494 65.8681 41.3289C67.2699 39.9271 67.7061 37.9562 67.7061 36.3652C67.7061 35.8736 67.6685 35.4186 67.5921 35.0399H60.4505V35.0411ZM113.73 36.6886C113.314 35.5714 112.044 33.5053 109.449 33.5053C106.872 33.5053 104.731 35.5326 104.731 38.5066C104.731 41.3101 106.853 43.5079 109.694 43.5079C111.986 43.5079 113.313 42.1062 113.863 41.2912L112.158 40.1541C111.59 40.9878 110.813 41.537 109.694 41.537C108.577 41.537 107.781 41.0255 107.27 40.0212L113.957 37.2554L113.73 36.6886ZM106.91 38.3561C106.853 36.4228 108.407 35.4385 109.525 35.4385C110.397 35.4385 111.135 35.8748 111.382 36.4993L106.91 38.3561ZM101.473 43.2057H103.67V28.5052H101.473V43.2057ZM97.8727 34.6236H97.7974C97.3047 34.0356 96.3569 33.5053 95.1645 33.5053C92.6632 33.5053 90.3713 35.7031 90.3713 38.5266C90.3713 41.33 92.6632 43.5091 95.1645 43.5091C96.3581 43.5091 97.3047 42.9787 97.7974 42.3731H97.8727V43.0928C97.8727 45.0061 96.8496 46.0291 95.2021 46.0291C93.8568 46.0291 93.0231 45.0637 92.6821 44.2487L90.7688 45.0449C91.318 46.3701 92.7761 48 95.2021 48C97.7786 48 99.9576 46.4842 99.9576 42.7894V33.8099H97.8739V34.6236H97.8727ZM95.3538 41.5394C93.838 41.5394 92.5692 40.2693 92.5692 38.5266C92.5692 36.7638 93.838 35.4762 95.3538 35.4762C96.8496 35.4762 98.0244 36.7638 98.0244 38.5266C98.0244 40.2693 96.8496 41.5394 95.3538 41.5394ZM124.025 28.5052H118.767V43.2057H120.96V37.6364H124.023C126.455 37.6364 128.847 35.876 128.847 33.0714C128.847 30.2667 126.456 28.5052 124.025 28.5052ZM124.081 35.5902H120.96V30.5513H124.081C125.721 30.5513 126.653 31.9095 126.653 33.0714C126.653 34.2097 125.721 35.5902 124.081 35.5902ZM137.642 33.4794C136.053 33.4794 134.408 34.1791 133.727 35.7302L135.675 36.5428C136.091 35.7302 136.867 35.4644 137.68 35.4644C138.814 35.4644 139.968 36.1453 139.987 37.3553V37.507C139.589 37.2801 138.738 36.9402 137.698 36.9402C135.599 36.9402 133.462 38.0938 133.462 40.2493C133.462 42.2167 135.183 43.4832 137.112 43.4832C138.586 43.4832 139.4 42.8211 139.91 42.045H139.986V43.1798H142.105V37.5435C142.106 34.9352 140.156 33.4794 137.642 33.4794ZM137.376 41.5358C136.659 41.5358 135.656 41.176 135.656 40.287C135.656 39.1522 136.905 38.7171 137.983 38.7171C138.946 38.7171 139.401 38.9252 139.987 39.2086C139.816 40.5716 138.644 41.5358 137.376 41.5358ZM149.821 33.8004L147.306 40.1741H147.231L144.62 33.8004H142.256L146.171 42.7083L143.939 47.6637H146.228L152.261 33.8004H149.821ZM130.058 43.2057H132.252V28.5052H130.058V43.2057Z" fill="#141414"/>
<path d="M60.0673 19.9723C60.0673 20.9577 59.7756 21.7421 59.1912 22.3277C58.5279 23.0239 57.6624 23.372 56.5994 23.372C55.581 23.372 54.7143 23.0192 54.0029 22.3136C53.2903 21.6069 52.934 20.732 52.934 19.6877C52.934 18.6423 53.2903 17.7674 54.0029 17.0618C54.7143 16.3551 55.581 16.0023 56.5994 16.0023C57.105 16.0023 57.5884 16.1011 58.047 16.2975C58.5068 16.495 58.8748 16.7573 59.15 17.0853L58.5303 17.7062C58.0634 17.1477 57.4202 16.869 56.5982 16.869C55.855 16.869 55.2129 17.13 54.6708 17.6522C54.1287 18.1743 53.8583 18.8528 53.8583 19.6865C53.8583 20.5203 54.1287 21.1988 54.6708 21.7209C55.2129 22.243 55.855 22.5041 56.5982 22.5041C57.3861 22.5041 58.0434 22.2419 58.5691 21.7162C58.9101 21.374 59.1077 20.8978 59.1606 20.2874H56.5982V19.4396H60.0167C60.052 19.6242 60.0673 19.8018 60.0673 19.9723Z" fill="#141414"/>
<path d="M65.4885 17.0254H62.2758V19.2621H65.1733V20.1099H62.2758V22.3466H65.4885V23.2144H61.3691V16.1588H65.4885V17.0254Z" fill="#141414"/>
<path d="M69.3113 23.2144H68.4047V17.0254H66.4338V16.1588H71.2822V17.0254H69.3113V23.2144Z" fill="#141414"/>
<path d="M74.79 23.2144V16.1588H75.6967V23.2144H74.79Z" fill="#141414"/>
<path d="M79.7174 23.2144H78.8108V17.0254H76.8399V16.1588H81.6883V17.0254H79.7174V23.2144Z" fill="#141414"/>
<path d="M90.8663 22.3031C90.1725 23.0157 89.3106 23.372 88.2793 23.372C87.2479 23.372 86.386 23.0157 85.6933 22.3031C84.9995 21.5905 84.6538 20.7179 84.6538 19.6866C84.6538 18.6553 84.9995 17.7827 85.6933 17.0701C86.386 16.3575 87.2479 16 88.2793 16C89.3047 16 90.1655 16.3587 90.8616 17.0748C91.5578 17.791 91.9059 18.6612 91.9059 19.6866C91.9059 20.7179 91.559 21.5905 90.8663 22.3031ZM86.3625 21.7116C86.8846 22.2408 87.5231 22.5042 88.2793 22.5042C89.0354 22.5042 89.6751 22.2396 90.196 21.7116C90.7182 21.1824 90.9804 20.5074 90.9804 19.6866C90.9804 18.8658 90.7182 18.1908 90.196 17.6616C89.6751 17.1324 89.0354 16.869 88.2793 16.869C87.5231 16.869 86.8846 17.1336 86.3625 17.6616C85.8415 18.1908 85.5793 18.8658 85.5793 19.6866C85.5793 20.5074 85.8415 21.1824 86.3625 21.7116Z" fill="#141414"/>
<path d="M93.1783 23.2144V16.1588H94.2813L97.7104 21.6469H97.7492L97.7104 20.2875V16.1588H98.617V23.2144H97.6704L94.0826 17.4594H94.0438L94.0826 18.8188V23.2144H93.1783Z" fill="#141414"/>
<path d="M60.0673 19.9723C60.0673 20.9577 59.7756 21.7421 59.1912 22.3277C58.5279 23.0239 57.6624 23.372 56.5994 23.372C55.581 23.372 54.7143 23.0192 54.0029 22.3136C53.2903 21.6069 52.934 20.732 52.934 19.6877C52.934 18.6423 53.2903 17.7674 54.0029 17.0618C54.7143 16.3551 55.581 16.0023 56.5994 16.0023C57.105 16.0023 57.5884 16.1011 58.047 16.2975C58.5068 16.495 58.8748 16.7573 59.15 17.0853L58.5303 17.7062C58.0634 17.1477 57.4202 16.869 56.5982 16.869C55.855 16.869 55.2129 17.13 54.6708 17.6522C54.1287 18.1743 53.8583 18.8528 53.8583 19.6865C53.8583 20.5203 54.1287 21.1988 54.6708 21.7209C55.2129 22.243 55.855 22.5041 56.5982 22.5041C57.3861 22.5041 58.0434 22.2419 58.5691 21.7162C58.9101 21.374 59.1077 20.8978 59.1606 20.2874H56.5982V19.4396H60.0167C60.052 19.6242 60.0673 19.8018 60.0673 19.9723Z" stroke="#141414" stroke-width="0.2" stroke-miterlimit="10"/>
<path d="M65.4885 17.0254H62.2758V19.2621H65.1733V20.1099H62.2758V22.3466H65.4885V23.2144H61.3691V16.1588H65.4885V17.0254Z" stroke="#141414" stroke-width="0.2" stroke-miterlimit="10"/>
<path d="M69.3113 23.2144H68.4047V17.0254H66.4338V16.1588H71.2822V17.0254H69.3113V23.2144Z" stroke="#141414" stroke-width="0.2" stroke-miterlimit="10"/>
<path d="M74.79 23.2144V16.1588H75.6967V23.2144H74.79Z" stroke="#141414" stroke-width="0.2" stroke-miterlimit="10"/>
<path d="M79.7174 23.2144H78.8108V17.0254H76.8399V16.1588H81.6883V17.0254H79.7174V23.2144Z" stroke="#141414" stroke-width="0.2" stroke-miterlimit="10"/>
<path d="M90.8663 22.3031C90.1725 23.0157 89.3106 23.372 88.2793 23.372C87.2479 23.372 86.386 23.0157 85.6933 22.3031C84.9995 21.5905 84.6538 20.7179 84.6538 19.6866C84.6538 18.6553 84.9995 17.7827 85.6933 17.0701C86.386 16.3575 87.2479 16 88.2793 16C89.3047 16 90.1655 16.3587 90.8616 17.0748C91.5578 17.791 91.9059 18.6612 91.9059 19.6866C91.9059 20.7179 91.559 21.5905 90.8663 22.3031ZM86.3625 21.7116C86.8846 22.2408 87.5231 22.5042 88.2793 22.5042C89.0354 22.5042 89.6751 22.2396 90.196 21.7116C90.7182 21.1824 90.9804 20.5074 90.9804 19.6866C90.9804 18.8658 90.7182 18.1908 90.196 17.6616C89.6751 17.1324 89.0354 16.869 88.2793 16.869C87.5231 16.869 86.8846 17.1336 86.3625 17.6616C85.8415 18.1908 85.5793 18.8658 85.5793 19.6866C85.5793 20.5074 85.8415 21.1824 86.3625 21.7116Z" stroke="#141414" stroke-width="0.2" stroke-miterlimit="10"/>
<path d="M93.1783 23.2144V16.1588H94.2813L97.7104 21.6469H97.7492L97.7104 20.2875V16.1588H98.617V23.2144H97.6704L94.0826 17.4594H94.0438L94.0826 18.8188V23.2144H93.1783Z" stroke="#141414" stroke-width="0.2" stroke-miterlimit="10"/>
<path fill-rule="evenodd" clip-rule="evenodd" d="M16.2892 17.5916C16.1252 17.9207 16.0338 18.3352 16.0338 18.8246V44.8318C16.0338 45.3223 16.1254 45.7367 16.2895 46.0657L30.5254 31.8278L16.2892 17.5916ZM16.9822 46.7872C17.5167 47.058 18.2349 47.0033 19.0219 46.557L35.7492 37.0516L31.2325 32.5349L16.9822 46.7872ZM36.6518 36.54L41.954 33.5275C43.5968 32.5926 43.5968 31.065 41.954 30.1313L36.6495 27.1171L31.9395 31.8277L36.6518 36.54ZM35.7477 26.6047L19.0219 17.1007C18.2348 16.6534 17.5166 16.5992 16.9821 16.8703L31.2324 31.1206L35.7477 26.6047Z" fill="#141414"/>
</svg>
