<svg width="120" height="120" viewBox="0 0 120 120" fill="none" xmlns="http://www.w3.org/2000/svg">
<path d="M110 0H54C48.4866 0 44 4.48663 44 10V34H10C8.89554 34 8 34.8955 8 36V84C8 85.1045 8.89554 86 10 86H44V110C44 115.513 48.4866 120 54 120H110C115.513 120 120 115.513 120 110V10C120 4.48663 115.513 0 110 0ZM48 10C48 6.69097 50.691 4 54 4H110C113.309 4 116 6.69097 116 10V16H48V10ZM12 38H56V82H12V38ZM58 86C59.1045 86 60 85.1045 60 84V36C60 34.8955 59.1045 34 58 34H48V20H116V100H48V86H58ZM110 116H54C50.691 116 48 113.309 48 110V104H116V110C116 113.309 113.309 116 110 116Z" fill="#5D6B98"/>
<path d="M64 38C64 39.1045 64.8955 40 66 40C67.1045 40 68 39.1045 68 38V28C68 26.8955 67.1045 26 66 26H56C54.8955 26 54 26.8955 54 28C54 29.1045 54.8955 30 56 30H64V38Z" fill="#5D6B98"/>
<path d="M12 90H4V82C4 80.8955 3.10446 80 2 80C0.895543 80 0 80.8955 0 82V92C0 93.1045 0.895543 94 2 94H12C13.1045 94 14 93.1045 14 92C14 90.8955 13.1045 90 12 90Z" fill="#5D6B98"/>
<path d="M2 40C3.10446 40 4 39.1045 4 38V30H12C13.1045 30 14 29.1045 14 28C14 26.8955 13.1045 26 12 26H2C0.895543 26 0 26.8955 0 28V38C0 39.1045 0.895543 40 2 40Z" fill="#5D6B98"/>
<path d="M56 94H66C67.1045 94 68 93.1045 68 92V82C68 80.8955 67.1045 80 66 80C64.8955 80 64 80.8955 64 82V90H56C54.8955 90 54 90.8955 54 92C54 93.1045 54.8955 94 56 94Z" fill="#5D6B98"/>
<path d="M52 76V62C52 60.8955 51.1045 60 50 60H46V52C46 50.8955 45.1045 50 44 50H34V44C34 42.8955 33.1045 42 32 42H18C16.8955 42 16 42.8955 16 44V56C16 57.1045 16.8955 58 18 58H24V62C24 63.1045 24.8955 64 26 64H38V76C38 77.1045 38.8955 78 40 78H50C51.1045 78 52 77.1045 52 76ZM20 46H30V54H20V46ZM28 58H32C33.1045 58 34 57.1045 34 56V54H42V60H28V58ZM48 74H42V64H48V74Z" fill="#5D6B98"/>
<path d="M32 68H16C14.8955 68 14 68.8955 14 70V76C14 77.1045 14.8955 78 16 78H32C33.1045 78 34 77.1045 34 76V70C34 68.8955 33.1045 68 32 68ZM30 74H18V72H30V74Z" fill="#5D6B98"/>
<path d="M44 44H50V50C50 51.1045 50.8955 52 52 52C53.1045 52 54 51.1045 54 50V42C54 40.8955 53.1045 40 52 40H44C42.8955 40 42 40.8955 42 42C42 43.1045 42.8955 44 44 44Z" fill="#5D6B98"/>
<path d="M86 108H76C74.8955 108 74 108.896 74 110C74 111.104 74.8955 112 76 112H86C87.1045 112 88 111.104 88 110C88 108.896 87.1045 108 86 108Z" fill="#5D6B98"/>
</svg>
