<svg width="122" height="120" viewBox="0 0 122 120" fill="none" xmlns="http://www.w3.org/2000/svg">
<path d="M75.0145 89.4098V79.3638H83.0514V72.3316H78.0284V70.3223H84.056C84.6085 70.3223 85.0606 70.7744 85.0606 71.327V79.3638H91.0882V73.3362C91.0882 72.7836 91.5403 72.3316 92.0928 72.3316H100.13V74.3408H93.0974V79.3638H105.153C105.705 79.3638 106.157 78.9117 106.157 78.3592V68.3131H96.1113V66.3039H106.157V62.2855H100.13V60.2763H106.157V50.2302H95.1066V55.2533H93.0974V49.2256C93.0974 48.6731 93.5495 48.221 94.102 48.221H106.157V44.2026C106.157 43.6501 105.705 43.198 105.153 43.198H89.079V49.2256H87.0698V43.198H75.0145V5.02302C75.0145 2.26042 72.7542 0 69.9915 0H25.7889C23.0263 0 20.7659 2.26037 20.7659 5.02302V58.7688H20.8412L16.0442 63.5659C13.9094 65.7007 12.98 68.7648 13.5828 71.7283L16.697 87.2746L0.773926 119.096L2.58221 120L18.6559 87.8526C18.7564 87.6517 18.7815 87.4257 18.7312 87.1996L15.5668 71.3269C15.1147 69.0164 15.818 66.6304 17.5007 64.9727L33.8506 48.6228L35.4831 50.2553C38.2206 52.9929 38.2206 57.4634 35.4831 60.2008L25.0855 70.5984C24.6836 71.0002 24.6836 71.6281 25.0855 72.0299C25.1608 72.1053 25.211 72.1555 25.2864 72.1806L26.0649 72.6327C33.1975 76.7014 36.136 85.4666 32.8963 93.0261C32.6702 93.5284 32.9214 94.1311 33.4237 94.3572C33.5493 94.4074 33.6748 94.4325 33.8255 94.4325H52.034L48.6184 99.5559C46.584 102.645 43.1182 104.479 39.4263 104.479H33.8255C33.4237 104.479 33.0721 104.73 32.8963 105.081L26.8686 119.146L28.7272 119.95L34.5036 106.488H39.4513C43.8213 106.488 47.89 104.303 50.326 100.661L54.4951 94.4325H69.9911C72.7537 94.4325 75.0141 92.1722 75.0141 89.4095L75.0145 89.4098ZM98.1193 54.2498H102.138V56.259H98.1193V54.2498ZM89.0779 53.2452H91.0871V60.2774H98.1193V62.2867H90.0825C89.53 62.2867 89.0779 61.8346 89.0779 61.282V53.2452ZM88.0733 66.3051H92.0917V68.3143H88.0733V66.3051ZM86.0641 58.2682H82.0456V56.259H86.0641V58.2682ZM80.0364 50.2314H84.0548V52.2406H80.0364V50.2314ZM80.0364 64.2959H84.0548V66.3051H80.0364V64.2959ZM75.0134 48.2222H78.0272V50.2314H75.0134V48.2222ZM75.0134 56.259H78.0272C78.5797 56.259 79.0318 56.7111 79.0318 57.2636V63.2913H77.0226V58.2682H75.0134V56.259ZM75.0134 68.3143H76.018V70.3235H75.0134V68.3143ZM75.0134 74.3419H78.0272V76.3511H75.0134V74.3419ZM35.2816 92.4248C37.9688 84.3629 34.7039 75.4971 27.4206 71.1021L36.8889 61.6338C39.9278 58.595 40.4049 53.7979 38.0191 50.2064H39.8525V48.1972H36.261L34.5532 46.4893C34.1513 46.0875 33.5234 46.0875 33.1216 46.4893L32.8202 46.7907V41.1899H30.811V48.7999L22.7741 56.8368V5.0244C22.7741 3.36679 24.1304 2.01059 25.788 2.01059H33.8248V3.01519C33.8248 5.22532 35.6331 7.03361 37.8432 7.03361H57.9353C60.1454 7.03361 61.9537 5.22532 61.9537 3.01519V2.01059H69.9906C71.6482 2.01059 73.0044 3.36679 73.0044 5.0244V89.4112C73.0044 91.0688 71.6482 92.425 69.9906 92.425L35.2816 92.4248Z" fill="#5D6B98"/>
<path d="M62.9595 48.2222H55.9272V50.2314H63.9641C64.5166 50.2314 64.9687 49.7793 64.9687 49.2268V41.1899H62.9595V48.2222Z" fill="#5D6B98"/>
<path d="M62.9595 25.1152H64.9687V17.0783C64.9687 16.5258 64.5166 16.0737 63.9641 16.0737H55.9272V18.0829H62.9595V25.1152Z" fill="#5D6B98"/>
<path d="M32.8188 18.0817H39.851V16.0725H31.8142C31.2617 16.0725 30.8096 16.5246 30.8096 17.0771V25.114H32.8188V18.0817Z" fill="#5D6B98"/>
<path d="M62.9594 37.1704H64.9686V29.1335H62.9594V32.1474H32.8212V29.1335H30.812V37.1704H32.8212V34.1566H62.9594V37.1704Z" fill="#5D6B98"/>
<path d="M50.9707 84.4522L65.0361 70.3868L66.4569 71.8076L52.3915 85.873L50.9707 84.4522Z" fill="#5D6B98"/>
<path d="M59.228 84.6818L65.2476 78.6604L66.6684 80.0812L60.6488 86.1026L59.228 84.6818Z" fill="#5D6B98"/>
<path d="M120.221 100.462H113.188V25.1174C113.188 24.5649 112.736 24.1128 112.184 24.1128H77.7768V26.122H111.18V108.5H116.203V110.509H59.9454V108.5H64.9684V96.5449H62.9592V100.463H55.927C55.3744 100.463 54.9224 100.915 54.9224 101.467V117.541C54.9224 118.094 55.3744 118.546 55.927 118.546H120.222C120.774 118.546 121.226 118.094 121.226 117.541V101.467C121.226 100.915 120.774 100.463 120.222 100.463L120.221 100.462Z" fill="#5D6B98"/>
<path d="M78.0273 86.3949H100.129V88.4041H78.0273V86.3949Z" fill="#5D6B98"/>
</svg>
