<svg width="120" height="120" viewBox="0 0 120 120" fill="none" xmlns="http://www.w3.org/2000/svg">
<path d="M11.2509 52.5005C12.2864 52.5005 13.1259 51.661 13.1259 50.6256V41.2506H22.5009C23.5363 41.2506 24.3759 40.411 24.3759 39.3756C24.3759 38.3402 23.5363 37.5006 22.5009 37.5006H13.1259C12.1315 37.5014 11.1781 37.8974 10.475 38.5997C9.77275 39.3028 9.37681 40.2562 9.37598 41.2506V50.6255C9.37598 51.661 10.2155 52.5005 11.2509 52.5005Z" fill="#5D6B98"/>
<path d="M9.376 78.7505C9.37683 79.7449 9.77277 80.6983 10.475 81.4014C11.1782 82.1036 12.1316 82.4996 13.126 82.5004H22.5009C23.5363 82.5004 24.3759 81.6609 24.3759 80.6254C24.3759 79.59 23.5363 78.7504 22.5009 78.7504H13.126V69.3755C13.126 68.3401 12.2864 67.5005 11.251 67.5005C10.2155 67.5005 9.37598 68.3401 9.37598 69.3755L9.376 78.7505Z" fill="#5D6B98"/>
<path d="M30.0009 56.2506V45.0006C30.0009 43.9652 29.1613 43.1256 28.1259 43.1256H16.876C15.8405 43.1256 15.001 43.9652 15.001 45.0006V56.2506C15.001 57.286 15.8405 58.1255 16.876 58.1255H28.1259C29.1613 58.1255 30.0009 57.286 30.0009 56.2506ZM26.2509 54.3756H18.751V46.8756H26.2509V54.3756Z" fill="#5D6B98"/>
<path d="M20.626 48.7506H24.376V52.5006H20.626V48.7506Z" fill="#5D6B98"/>
<path d="M33.751 45.0006V56.2506C33.751 57.286 34.5905 58.1255 35.626 58.1255H46.8759C47.9113 58.1255 48.7509 57.286 48.7509 56.2506V45.0006C48.7509 43.9652 47.9113 43.1256 46.8759 43.1256H35.626C34.5905 43.1256 33.751 43.9652 33.751 45.0006ZM37.501 46.8756H45.0009V54.3756H37.501V46.8756Z" fill="#5D6B98"/>
<path d="M39.376 48.7506H43.126V52.5006H39.376V48.7506Z" fill="#5D6B98"/>
<path d="M33.751 75.0006C33.751 76.036 34.5905 76.8755 35.626 76.8755H46.8759C47.9113 76.8755 48.7509 76.036 48.7509 75.0006V63.7506C48.7509 62.7152 47.9113 61.8756 46.8759 61.8756H35.626C34.5905 61.8756 33.751 62.7152 33.751 63.7506V75.0006ZM37.501 65.6256H45.0009V73.1256H37.501V65.6256Z" fill="#5D6B98"/>
<path d="M39.376 67.5005H43.126V71.2505H39.376V67.5005Z" fill="#5D6B98"/>
<path d="M24.376 63.7505H28.126V67.5005H24.376V63.7505Z" fill="#5D6B98"/>
<path d="M20.626 67.5005H24.376V71.2505H20.626V67.5005Z" fill="#5D6B98"/>
<path d="M24.376 71.2505H28.126V75.0005H24.376V71.2505Z" fill="#5D6B98"/>
<path d="M16.876 71.2505H20.626V75.0005H16.876V71.2505Z" fill="#5D6B98"/>
<path d="M16.876 63.7505H20.626V67.5005H16.876V63.7505Z" fill="#5D6B98"/>
<path d="M3.75094 102.189H48.7507V98.439H3.75094V21.5643H48.7507V17.8143H3.75094C2.75653 17.8152 1.80313 18.2111 1.10002 18.9134C0.397746 19.6165 0.00181227 20.5699 0.000976562 21.5643V98.4389C0.00181356 99.4333 0.397746 100.387 1.10002 101.09C1.80313 101.792 2.75655 102.188 3.75094 102.189Z" fill="#5D6B98"/>
<path d="M48.7509 41.2506V37.5006H41.251C40.2155 37.5006 39.376 38.3402 39.376 39.3756C39.376 40.411 40.2155 41.2506 41.251 41.2506H48.7509Z" fill="#5D6B98"/>
<path d="M41.251 82.5005H48.7509V78.7505H41.251C40.2155 78.7505 39.376 79.5901 39.376 80.6255C39.376 81.6609 40.2155 82.5005 41.251 82.5005Z" fill="#5D6B98"/>
<path d="M58.1688 0.000835496C55.0348 0.000835496 52.7062 2.55297 52.5035 6.20931C52.5018 6.24363 52.501 6.27794 52.501 6.31226V115.117C52.501 115.189 52.5052 115.261 52.5135 115.333C52.7839 116.649 53.4996 117.831 54.54 118.682C55.5796 119.531 56.8804 119.997 58.2238 120H112.556C114.041 120.003 115.466 119.405 116.504 118.342C117.548 117.285 118.13 115.858 118.125 114.373L118.103 52.4964L118.125 52.4989C119.16 52.4989 120 51.6593 120 50.6239V43.1239C120 42.0885 119.16 41.2489 118.125 41.2489C118.116 41.2489 118.108 41.2514 118.1 41.2514L118.098 35.6222C118.107 35.6222 118.115 35.6247 118.125 35.6247C119.16 35.6247 120 34.7851 120 33.7497V26.2497C120 25.2143 119.16 24.3747 118.125 24.3747C118.114 24.3747 118.105 24.3781 118.094 24.3781V23.4339C118.105 23.4339 118.115 23.4373 118.125 23.4373H118.125C119.16 23.4373 120 22.5977 120 21.5623V14.0623C120 13.0269 119.16 12.1873 118.125 12.1873C118.113 12.1873 118.101 12.1907 118.089 12.1907L118.087 5.70276C118.087 2.49106 114.73 0 111.842 0L58.1688 0.000835496ZM114.337 5.70445L114.375 114.375C114.377 114.874 114.182 115.354 113.833 115.711C113.498 116.055 113.036 116.25 112.556 116.25H58.2239C57.3769 116.221 56.616 115.723 56.251 114.958V6.36717C56.3523 4.7751 57.1023 3.74968 58.1687 3.74968H111.843C112.939 3.74968 114.338 4.84455 114.338 5.70336L114.337 5.70445Z" fill="#5D6B98"/>
<path d="M88.2822 10.3133C88.2822 11.8669 87.0224 13.1258 85.4697 13.1258C83.9161 13.1258 82.6572 11.8669 82.6572 10.3133C82.6572 8.75978 83.9161 7.50085 85.4697 7.50085C87.0224 7.50085 88.2822 8.75978 88.2822 10.3133Z" fill="#5D6B98"/>
<path d="M92.0322 108.75H78.9072C77.8718 108.75 77.0322 109.59 77.0322 110.625C77.0322 111.661 77.8718 112.5 78.9072 112.5H92.0322C93.0676 112.5 93.9071 111.661 93.9071 110.625C93.9071 109.59 93.0676 108.75 92.0322 108.75Z" fill="#5D6B98"/>
<path d="M85.3119 37.5006C79.3445 37.5006 73.6216 39.871 69.4021 44.0907C65.1826 48.3104 62.812 54.0331 62.812 60.0005C62.812 65.9679 65.1824 71.6908 69.4021 75.9103C73.6218 80.1298 79.3445 82.5004 85.3119 82.5004C91.2793 82.5004 97.0022 80.13 101.222 75.9103C105.441 71.6906 107.812 65.9679 107.812 60.0005C107.805 54.0348 105.432 48.3162 101.214 44.0982C96.9962 39.8802 91.2776 37.5073 85.3119 37.5006ZM85.3119 78.7504C80.339 78.7504 75.5703 76.775 72.0539 73.2585C68.5375 69.7421 66.562 64.9734 66.562 60.0005C66.562 55.0276 68.5374 50.2589 72.0539 46.7425C75.5704 43.2261 80.339 41.2506 85.3119 41.2506C90.2848 41.2506 95.0535 43.226 98.5699 46.7425C102.086 50.259 104.062 55.0276 104.062 60.0005C104.056 64.9717 102.079 69.7378 98.5641 73.2527C95.0494 76.7676 90.2831 78.7446 85.3119 78.7504Z" fill="#5D6B98"/>
<path d="M93.3625 52.1128L81.5636 63.9126L77.2646 59.6136V59.6128C76.5322 58.8829 75.3469 58.8846 74.6154 59.6153C73.8847 60.3469 73.883 61.5321 74.6129 62.2645L80.2379 67.8895C80.5894 68.241 81.0666 68.4386 81.5638 68.4386C82.061 68.4386 82.5381 68.241 82.8897 67.8895L96.0146 54.7645C96.7428 54.0313 96.742 52.8477 96.0112 52.1162C95.2797 51.3854 94.0961 51.3846 93.3629 52.1128L93.3625 52.1128Z" fill="#5D6B98"/>
</svg>
