<svg width="48" height="49" viewBox="0 0 48 49" fill="none" xmlns="http://www.w3.org/2000/svg">
<path fill-rule="evenodd" clip-rule="evenodd" d="M0 6.47009C0 3.15638 2.68629 0.470093 6 0.470093H42C45.3137 0.470093 48 3.15638 48 6.47009V42.4701C48 45.7838 45.3137 48.4701 42 48.4701H6C2.68629 48.4701 0 45.7838 0 42.4701V6.47009ZM12 7.97009C9.51463 7.97009 7.5 9.98472 7.5 12.4701V18.4701C7.5 19.2984 6.82835 19.9701 6 19.9701C5.17165 19.9701 4.5 19.2984 4.5 18.4701V12.4701C4.5 8.32804 7.85794 4.97009 12 4.97009H18C18.8284 4.97009 19.5 5.64174 19.5 6.47009C19.5 7.29844 18.8284 7.97009 18 7.97009H12ZM40.5 12.4701C40.5 9.98472 38.4854 7.97009 36 7.97009H30C29.1716 7.97009 28.5 7.29844 28.5 6.47009C28.5 5.64174 29.1716 4.97009 30 4.97009H36C40.1421 4.97009 43.5 8.32804 43.5 12.4701V18.4701C43.5 19.2984 42.8284 19.9701 42 19.9701C41.1716 19.9701 40.5 19.2984 40.5 18.4701V12.4701ZM12 34.3701C12.8287 34.3701 13.5 33.6984 13.5 32.8701V16.0701C13.5 15.2417 12.8287 14.5701 12 14.5701C11.1716 14.5701 10.5 15.2417 10.5 16.0701V32.8701C10.5 33.6984 11.1716 34.3701 12 34.3701ZM18.3 32.8701C18.3 33.6984 17.6287 34.3701 16.8 34.3701C15.9716 34.3701 15.3 33.6984 15.3 32.8701V16.0701C15.3 15.2417 15.9716 14.5701 16.8 14.5701C17.6287 14.5701 18.3 15.2417 18.3 16.0701V32.8701ZM21.6 34.3701C22.4284 34.3701 23.1 33.6984 23.1 32.8701V16.0701C23.1 15.2417 22.4284 14.5701 21.6 14.5701C20.7716 14.5701 20.1 15.2417 20.1 16.0701V32.8701C20.1 33.6984 20.7716 34.3701 21.6 34.3701ZM27.9 32.8701C27.9 33.6984 27.2284 34.3701 26.4 34.3701C25.5716 34.3701 24.9 33.6984 24.9 32.8701V16.0701C24.9 15.2417 25.5716 14.5701 26.4 14.5701C27.2284 14.5701 27.9 15.2417 27.9 16.0701V32.8701ZM31.2 34.3701C32.0284 34.3701 32.7 33.6984 32.7 32.8701V16.0701C32.7 15.2417 32.0284 14.5701 31.2 14.5701C30.3713 14.5701 29.7 15.2417 29.7 16.0701V32.8701C29.7 33.6984 30.3713 34.3701 31.2 34.3701ZM37.5 32.8701C37.5 33.6984 36.8284 34.3701 36 34.3701C35.1713 34.3701 34.5 33.6984 34.5 32.8701V16.0701C34.5 15.2417 35.1713 14.5701 36 14.5701C36.8284 14.5701 37.5 15.2417 37.5 16.0701V32.8701ZM36 40.9701C38.4854 40.9701 40.5 38.9555 40.5 36.4701V30.4701C40.5 29.6417 41.1716 28.9701 42 28.9701C42.8284 28.9701 43.5 29.6417 43.5 30.4701V36.4701C43.5 40.6122 40.1421 43.9701 36 43.9701H30C29.1716 43.9701 28.5 43.2984 28.5 42.4701C28.5 41.6417 29.1716 40.9701 30 40.9701H36ZM7.5 36.4701C7.5 38.9555 9.51463 40.9701 12 40.9701H18C18.8284 40.9701 19.5 41.6417 19.5 42.4701C19.5 43.2984 18.8284 43.9701 18 43.9701H12C7.85794 43.9701 4.5 40.6122 4.5 36.4701V30.4701C4.5 29.6417 5.17165 28.9701 6 28.9701C6.82835 28.9701 7.5 29.6417 7.5 30.4701V36.4701Z" fill="#EF6820"/>
</svg>
